<?xml version="1.0" encoding="UTF-8" standalone="no"?>
<!DOCTYPE svg PUBLIC "-//W3C//DTD SVG 1.1//EN" "http://www.w3.org/Graphics/SVG/1.1/DTD/svg11.dtd">
<svg xmlns="http://www.w3.org/2000/svg" version="1.1" viewBox="0.00 0.00 400.00 400.00">
<path fill="#191919" d="
  M 237.02 92.84
  C 230.54 94.17 228.46 84.99 235.31 84.18
  Q 235.77 84.13 235.65 83.68
  Q 233.66 76.28 236.16 69.03
  Q 236.33 68.52 236.06 68.06
  C 234.13 64.85 232.39 58.03 237.28 56.51
  C 239.15 55.93 241.10 57.08 242.77 57.92
  Q 243.24 58.15 243.50 57.70
  C 246.00 53.37 253.51 59.10 256.46 61.53
  Q 256.86 61.86 257.39 61.92
  Q 267.58 62.94 267.18 73.79
  Q 266.97 79.72 265.93 84.19
  A 0.57 0.56 18.5 0 0 266.26 84.84
  C 270.89 86.80 269.01 92.96 263.96 92.90
  A 0.55 0.55 0.0 0 0 263.42 93.37
  C 262.84 97.53 261.88 103.91 257.88 106.22
  A 0.97 0.95 -13.6 0 0 257.40 106.99
  Q 257.14 110.54 259.27 113.23
  Q 259.59 113.63 259.39 114.10
  Q 256.93 119.94 251.94 123.68
  Q 248.22 126.48 248.19 126.50
  Q 244.73 129.56 242.19 133.33
  A 0.60 0.60 0.0 0 1 241.14 133.24
  C 239.52 129.51 235.46 115.47 240.05 113.02
  Q 240.50 112.78 240.74 113.24
  Q 243.74 119.20 249.41 122.72
  A 0.86 0.86 0.0 0 0 250.35 122.69
  Q 254.63 119.72 257.07 115.13
  Q 257.31 114.67 257.20 114.17
  L 255.77 107.68
  Q 255.70 107.40 255.42 107.48
  Q 250.21 109.08 245.00 107.35
  Q 244.36 107.14 244.43 107.81
  Q 244.72 110.60 243.39 113.03
  A 0.51 0.51 0.0 0 1 242.44 112.72
  L 243.15 107.37
  A 0.86 0.83 -72.7 0 0 242.72 106.52
  C 237.85 103.88 236.99 98.37 237.42 93.19
  Q 237.45 92.75 237.02 92.84
  Z
  M 239.86 65.19
  C 238.72 63.80 238.35 62.20 238.31 60.47
  A 0.48 0.48 0.0 0 0 237.36 60.39
  Q 236.53 64.38 239.30 67.17
  A 0.71 0.71 0.0 0 0 240.51 66.58
  Q 240.43 65.88 239.86 65.19
  Z
  M 263.19 85.91
  Q 262.42 80.68 260.05 75.99
  Q 259.80 75.49 259.25 75.55
  Q 249.20 76.64 240.32 71.98
  Q 239.72 71.67 239.65 72.34
  L 238.49 84.15
  A 1.89 1.88 6.0 0 1 236.39 85.84
  Q 233.88 85.55 232.75 87.62
  A 1.20 1.20 0.0 0 0 232.67 88.62
  Q 233.90 92.08 237.19 90.67
  Q 237.61 90.50 237.69 90.05
  L 238.15 87.54
  A 0.47 0.47 0.0 0 1 239.09 87.65
  C 238.59 97.63 237.86 107.28 251.76 106.22
  C 261.86 105.45 260.43 96.37 262.27 89.10
  A 0.43 0.43 0.0 0 1 263.08 89.03
  L 263.70 90.49
  Q 263.90 90.98 264.43 91.03
  C 268.44 91.43 267.28 84.62 263.85 86.26
  Q 263.28 86.54 263.19 85.91
  Z
  M 240.41 115.38
  A 0.29 0.29 0.0 0 0 239.86 115.49
  Q 239.31 123.07 241.78 130.22
  Q 241.99 130.83 242.34 130.29
  Q 244.77 126.54 248.79 124.62
  Q 249.37 124.34 248.80 124.04
  Q 243.17 121.07 240.41 115.38
  Z"
/>
<path fill="#191919" d="
  M 242.30 79.85
  A 0.20 0.20 0.0 0 1 242.04 79.74
  L 242.00 79.65
  A 2.61 1.40 -21.8 0 1 243.90 77.38
  L 244.15 77.28
  A 2.61 1.40 -21.8 0 1 247.09 77.61
  L 247.13 77.71
  A 0.20 0.20 0.0 0 1 247.01 77.97
  L 242.30 79.85
  Z"
/>
<path fill="#191919" d="
  M 254.48 78.10
  A 0.16 0.16 0.0 0 1 254.44 77.88
  L 254.51 77.77
  A 2.17 1.55 33.1 0 1 257.17 77.66
  L 257.47 77.86
  A 2.17 1.55 33.1 0 1 258.44 80.34
  L 258.37 80.45
  A 0.16 0.16 0.0 0 1 258.15 80.50
  L 254.48 78.10
  Z"
/>
<path fill="#191919" d="
  M 248.98 90.69
  L 250.74 90.89
  A 0.43 0.43 0.0 0 1 250.91 91.68
  Q 249.30 92.62 247.69 91.69
  Q 246.92 91.25 247.08 90.38
  L 249.00 79.74
  A 0.47 0.47 0.0 0 1 249.94 79.81
  Q 250.09 85.00 248.48 89.90
  Q 248.25 90.60 248.98 90.69
  Z"
/>
<path fill="#14bef0" d="
  M 96.77 95.87
  Q 100.51 86.55 110.83 81.78
  A 0.69 0.69 0.0 0 1 111.80 82.53
  L 111.68 83.15
  A 0.81 0.80 82.1 0 1 111.24 83.74
  Q 101.81 88.39 97.44 97.95
  A 0.59 0.59 0.0 0 1 96.31 97.65
  Q 96.39 96.81 96.77 95.87
  Z"
/>
<ellipse fill="#191919" cx="0.00" cy="0.00" transform="translate(244.53,83.66) rotate(90.4)" rx="1.73" ry="1.06"/>
<ellipse fill="#191919" cx="0.00" cy="0.00" transform="translate(255.28,83.86) rotate(81.7)" rx="1.64" ry="1.15"/>
<path fill="#191919" d="
  M 196.84 90.53
  C 188.87 83.58 176.08 88.44 172.10 97.40
  Q 171.91 97.83 171.57 97.91
  A 0.45 0.45 0.0 0 1 171.02 97.38
  C 172.86 88.26 183.24 83.95 191.27 85.65
  C 205.38 88.64 204.51 104.85 204.11 115.83
  C 203.94 120.57 204.81 123.43 207.90 126.65
  A 0.70 0.70 0.0 0 1 207.08 127.76
  Q 202.37 125.46 202.10 119.48
  C 201.71 111.05 203.76 96.56 196.84 90.53
  Z"
/>
<path fill="#191919" d="
  M 295.81 100.71
  A 1.36 1.36 0.0 0 0 294.84 98.19
  Q 291.71 99.01 289.79 101.54
  A 0.89 0.88 -42.3 0 0 289.74 102.53
  Q 294.45 110.36 290.24 118.49
  Q 289.99 118.96 290.28 119.41
  Q 297.23 129.97 289.53 139.91
  Q 289.17 140.37 289.51 140.84
  Q 294.71 148.27 291.01 156.67
  Q 290.81 157.13 291.24 157.39
  Q 302.12 163.89 298.15 176.32
  Q 298.00 176.79 298.43 177.02
  C 305.20 180.66 305.02 186.59 303.41 193.44
  Q 303.29 193.96 303.81 194.11
  C 310.87 196.03 311.12 204.69 308.80 210.20
  Q 307.77 212.66 306.64 215.10
  A 1.22 1.21 49.7 0 0 306.57 215.99
  L 309.63 226.61
  A 1.05 1.04 -14.3 0 1 308.85 227.92
  L 300.96 229.66
  A 0.98 0.97 -2.8 0 1 299.78 228.60
  Q 300.51 222.15 301.07 215.51
  C 301.16 214.47 300.39 213.32 299.56 212.49
  Q 292.87 205.74 296.54 196.97
  A 1.26 1.26 0.0 0 0 296.12 195.48
  Q 288.55 189.89 290.49 180.50
  A 1.42 1.42 0.0 0 0 289.79 178.96
  Q 279.44 173.21 282.85 161.41
  Q 282.99 160.91 282.65 160.51
  Q 273.89 150.50 280.22 138.63
  Q 280.48 138.15 280.15 137.71
  Q 273.65 129.14 277.78 118.98
  Q 277.98 118.49 277.62 118.11
  Q 269.72 109.87 277.66 101.53
  Q 278.04 101.14 277.83 100.64
  C 274.75 93.11 281.58 84.40 289.82 88.21
  Q 294.23 90.24 295.33 95.58
  A 1.22 1.20 -81.0 0 0 295.90 96.38
  Q 298.11 97.70 298.12 100.46
  Q 298.13 101.09 297.56 101.37
  L 293.02 103.52
  A 0.60 0.60 0.0 0 1 292.48 102.44
  L 295.81 100.71
  Z
  M 301.02 195.22
  Q 301.31 193.05 301.89 190.98
  C 303.31 185.92 302.13 179.20 295.87 178.41
  A 0.73 0.73 0.0 0 1 295.31 177.36
  C 299.41 169.19 296.44 162.44 288.64 158.53
  Q 288.14 158.28 288.30 157.74
  C 288.89 155.80 289.99 153.94 290.29 152.16
  C 291.12 147.20 289.16 144.19 286.88 140.47
  Q 286.55 139.94 286.97 139.48
  Q 295.85 129.80 287.63 119.36
  A 0.67 0.67 0.0 0 1 287.59 118.59
  Q 292.27 111.11 288.08 103.60
  C 286.16 100.15 290.84 97.45 293.41 96.43
  Q 293.91 96.23 293.77 95.71
  C 291.36 86.75 278.76 87.28 279.15 97.14
  C 279.21 98.63 279.86 99.73 280.36 101.18
  Q 280.54 101.71 280.11 102.07
  Q 271.10 109.92 280.10 117.60
  A 0.67 0.66 -56.8 0 1 280.26 118.39
  Q 275.07 128.98 282.52 137.72
  Q 282.88 138.15 282.59 138.63
  Q 275.46 150.34 284.88 160.12
  Q 285.27 160.53 285.10 161.07
  C 284.49 163.10 283.48 164.91 283.64 166.97
  Q 284.01 171.59 287.25 174.92
  C 288.53 176.24 291.00 177.03 292.37 178.89
  A 1.16 1.15 -55.5 0 1 292.55 179.88
  Q 290.79 186.07 294.28 191.12
  C 295.28 192.57 296.77 193.62 298.01 194.89
  A 2.63 2.63 0.0 0 1 298.46 197.93
  C 294.74 205.09 299.40 208.32 302.93 213.91
  A 1.07 1.02 -59.6 0 1 303.08 214.55
  L 301.89 226.86
  Q 301.84 227.40 302.37 227.30
  L 306.87 226.48
  Q 307.47 226.37 307.30 225.78
  L 304.30 215.39
  A 0.88 0.86 54.5 0 1 304.41 214.67
  C 308.11 209.20 311.64 196.89 301.53 195.87
  Q 300.94 195.81 301.02 195.22
  Z"
/>
<path fill="#14bef0" d="
  M 124.60 89.73
  C 117.77 91.86 112.15 95.02 107.55 100.56
  Q 107.20 100.97 106.94 100.97
  Q 106.73 100.97 106.54 100.81
  Q 106.18 100.50 106.42 100.09
  Q 112.09 90.68 122.99 88.45
  Q 124.13 88.21 124.80 88.78
  A 0.56 0.55 -33.3 0 1 124.60 89.73
  Z"
/>
<path fill="#191919" d="
  M 179.72 93.62
  C 178.41 95.98 177.24 96.49 177.20 99.43
  A 0.53 0.53 0.0 0 1 176.15 99.53
  Q 175.21 95.08 179.10 93.00
  A 0.46 0.45 0.3 0 1 179.72 93.62
  Z"
/>
<path fill="#191919" d="
  M 252.79 95.64
  Q 248.48 95.93 244.40 94.56
  A 0.28 0.27 52.8 0 1 244.47 94.02
  L 253.95 93.61
  A 0.94 0.94 0.0 0 1 254.91 94.39
  Q 255.77 99.45 253.09 103.06
  C 250.69 106.27 244.04 103.78 244.00 99.50
  A 0.78 0.78 0.0 0 1 245.54 99.32
  C 247.01 105.89 254.52 102.53 253.34 96.07
  Q 253.26 95.61 252.79 95.64
  Z"
/>
<path fill="#191919" d="
  M 187.94 95.95
  Q 185.23 96.87 183.73 99.28
  A 0.41 0.40 69.8 0 1 183.00 98.94
  Q 184.09 95.49 187.69 94.94
  A 0.52 0.52 0.0 0 1 187.94 95.95
  Z"
/>
<path fill="#191919" d="
  M 124.85 100.67
  Q 125.05 99.90 125.64 99.82
  A 0.64 0.64 0.0 0 1 126.36 100.54
  Q 124.80 111.51 125.33 122.59
  Q 125.35 123.07 125.20 123.54
  L 124.97 124.28
  A 0.76 0.75 -40.2 0 1 123.50 124.16
  Q 121.84 112.06 124.85 100.67
  Z"
/>
<path fill="#191919" d="
  M 190.41 101.67
  A 0.14 0.14 0.0 0 1 190.25 101.54
  L 190.25 101.48
  A 2.51 1.40 -5.9 0 1 192.60 99.83
  L 192.98 99.79
  A 2.51 1.40 -5.9 0 1 195.62 100.93
  L 195.62 100.99
  A 0.14 0.14 0.0 0 1 195.50 101.14
  L 190.41 101.67
  Z"
/>
<path fill="#191919" d="
  M 310.53 107.41
  Q 306.89 102.34 299.80 101.20
  A 0.55 0.55 0.0 0 1 299.81 100.12
  C 306.89 99.12 314.49 106.12 313.97 113.38
  A 0.63 0.63 0.0 0 1 312.75 113.53
  C 312.03 111.36 311.84 109.22 310.53 107.41
  Z"
/>
<path fill="#191919" d="
  M 183.42 123.70
  Q 183.01 122.11 181.22 121.80
  Q 180.60 121.69 180.55 121.06
  A 0.47 0.46 -85.8 0 1 181.11 120.57
  Q 187.47 122.02 185.36 128.71
  Q 184.79 130.50 185.96 129.03
  L 189.65 124.41
  A 0.60 0.59 74.8 0 1 190.67 125.00
  Q 187.94 132.12 180.73 134.67
  Q 180.10 134.89 180.30 135.53
  Q 180.93 137.64 179.81 139.46
  A 0.75 0.75 0.0 0 0 180.19 140.56
  Q 187.28 143.19 193.78 139.23
  Q 194.24 138.95 194.09 138.43
  Q 192.32 131.86 194.05 125.29
  A 0.58 0.57 -35.3 0 1 195.18 125.48
  Q 194.68 131.46 195.86 137.31
  Q 195.98 137.91 196.53 137.66
  Q 197.79 137.11 198.25 137.18
  C 211.97 139.08 227.41 145.00 236.69 155.91
  Q 241.20 161.22 245.16 171.05
  C 260.56 209.36 252.86 251.38 244.12 290.22
  Q 243.79 291.67 242.89 293.67
  Q 242.68 294.14 242.17 294.18
  L 241.25 294.25
  Q 240.76 294.29 240.75 294.78
  C 240.54 303.24 240.90 309.67 236.68 317.20
  Q 236.16 318.12 235.65 318.37
  A 0.73 0.73 0.0 0 1 234.68 317.40
  Q 236.80 313.03 237.92 308.59
  C 239.02 304.29 238.59 298.89 239.41 293.94
  Q 239.50 293.41 238.96 293.36
  L 232.81 292.73
  Q 232.29 292.68 232.33 293.20
  Q 233.31 306.63 232.06 320.01
  Q 231.87 321.99 231.05 323.09
  A 0.81 0.81 0.0 0 1 229.59 322.53
  C 231.54 300.44 231.53 277.37 226.16 255.79
  Q 226.04 255.33 225.57 255.39
  Q 224.85 255.49 224.25 255.34
  C 203.51 250.16 181.70 252.71 161.58 258.39
  A 0.98 0.97 3.1 0 0 160.94 258.96
  C 152.43 279.57 146.44 299.05 141.19 321.88
  A 0.49 0.48 -77.3 0 1 140.62 322.25
  L 140.14 322.14
  Q 139.52 322.00 139.58 321.37
  Q 139.87 318.06 140.83 313.53
  Q 147.07 284.07 159.92 257.77
  Q 160.14 257.32 159.99 256.83
  Q 159.16 254.04 161.15 251.98
  Q 161.59 251.53 161.28 250.98
  Q 157.17 243.77 156.31 235.49
  A 0.37 0.36 68.7 0 0 155.73 235.23
  Q 153.94 236.54 151.77 237.03
  Q 150.62 237.28 151.30 236.32
  Q 158.24 226.40 162.90 215.22
  A 1.38 1.38 0.0 0 1 163.52 214.54
  Q 168.48 211.85 170.39 206.50
  Q 170.57 206.00 171.08 205.86
  C 175.27 204.72 179.67 204.27 183.38 202.29
  C 186.63 200.55 200.66 191.07 196.45 187.40
  Q 196.00 187.00 196.47 186.62
  C 198.62 184.86 199.93 180.19 195.99 179.69
  Q 195.45 179.62 195.75 179.16
  C 198.12 175.68 194.29 172.02 191.76 174.96
  Q 191.36 175.42 191.05 174.90
  C 187.79 169.40 181.07 178.70 178.46 181.01
  A 0.30 0.30 0.0 0 1 177.97 180.71
  L 178.54 178.32
  A 0.67 0.63 42.9 0 0 178.51 177.92
  C 177.44 175.29 175.08 175.78 173.15 177.15
  Q 165.89 182.28 162.83 190.72
  C 162.35 192.06 161.43 193.03 160.57 194.08
  Q 160.22 194.50 159.66 194.51
  Q 154.56 194.59 152.27 199.16
  Q 152.06 199.59 151.62 199.79
  Q 138.55 205.71 126.47 213.47
  Q 125.96 213.80 125.74 213.23
  C 118.48 194.22 118.19 174.69 118.63 153.75
  C 118.69 150.83 119.86 150.12 122.62 149.54
  Q 129.90 148.02 136.83 146.51
  A 1.31 1.30 76.4 0 1 138.37 147.46
  Q 141.58 159.79 144.40 172.48
  Q 146.24 180.78 146.82 189.84
  A 0.57 0.57 0.0 0 0 147.86 190.12
  C 150.60 186.00 143.30 161.81 141.23 156.04
  A 0.80 0.79 56.5 0 1 141.39 155.24
  L 145.85 150.42
  Q 146.38 149.85 146.64 150.59
  C 147.86 154.09 151.28 161.74 156.29 160.09
  A 1.26 1.24 47.1 0 1 157.18 160.13
  Q 159.28 161.03 160.69 159.11
  A 0.93 0.93 0.0 0 1 161.53 158.73
  Q 163.43 158.92 164.15 157.24
  Q 164.35 156.77 164.85 156.76
  C 170.00 156.62 166.97 151.02 166.25 148.67
  C 165.50 146.23 165.84 143.61 165.07 141.00
  Q 164.96 140.64 165.32 140.52
  Q 171.53 138.53 178.06 138.02
  Q 178.61 137.98 178.70 137.44
  L 178.98 135.80
  Q 179.06 135.30 178.55 135.32
  Q 174.65 135.53 172.54 133.42
  C 164.58 125.45 167.83 110.81 171.53 101.42
  A 0.40 0.40 0.0 0 1 172.26 101.38
  Q 172.37 101.60 172.44 101.96
  Q 172.50 102.25 172.39 102.62
  C 170.78 108.07 167.72 121.28 170.44 126.27
  Q 170.63 126.63 170.74 126.24
  L 172.15 121.25
  A 0.84 0.84 0.0 0 1 172.92 120.63
  L 176.44 120.44
  Q 177.51 120.39 176.88 121.26
  Q 176.14 122.28 174.82 122.21
  Q 174.29 122.19 174.05 122.65
  Q 172.78 125.12 172.61 127.74
  C 172.29 132.71 177.13 134.53 181.16 132.58
  A 1.65 1.63 1.8 0 0 181.86 131.93
  Q 183.80 128.47 183.44 124.50
  Q 183.42 124.32 183.25 124.26
  Q 182.96 124.16 182.95 124.47
  C 182.86 129.00 177.73 134.02 174.72 127.99
  Q 173.87 126.29 175.21 125.42
  A 0.44 0.43 67.0 0 1 175.87 125.69
  C 176.12 126.79 176.15 127.78 177.10 128.48
  C 179.52 130.24 181.33 127.04 181.54 124.95
  Q 181.59 124.45 181.09 124.45
  L 176.10 124.39
  Q 175.60 124.38 175.72 123.90
  Q 175.77 123.72 175.80 123.55
  Q 175.85 123.32 176.08 123.32
  L 182.48 123.12
  Q 182.95 123.11 183.10 123.55
  Q 183.15 123.70 183.28 123.80
  Q 183.49 123.95 183.42 123.70
  Z
  M 172.96 142.84
  Q 174.90 142.51 176.31 141.12
  Q 176.92 140.52 176.07 140.61
  Q 174.17 140.82 172.57 141.80
  A 0.57 0.56 24.6 0 0 172.96 142.84
  Z
  M 199.9170 142.2654
  A 1.74 0.60 25.0 0 0 198.5936 140.9862
  A 1.74 0.60 25.0 0 0 196.7630 140.7946
  A 1.74 0.60 25.0 0 0 198.0864 142.0738
  A 1.74 0.60 25.0 0 0 199.9170 142.2654
  Z
  M 178.7753 145.4461
  A 1.40 0.52 123.6 0 0 179.9831 144.5678
  A 1.40 0.52 123.6 0 0 180.3247 143.1139
  A 1.40 0.52 123.6 0 0 179.1169 143.9922
  A 1.40 0.52 123.6 0 0 178.7753 145.4461
  Z
  M 193.1476 146.3577
  A 1.61 0.54 50.8 0 0 192.5485 144.7687
  A 1.61 0.54 50.8 0 0 191.1124 143.8623
  A 1.61 0.54 50.8 0 0 191.7115 145.4513
  A 1.61 0.54 50.8 0 0 193.1476 146.3577
  Z
  M 185.66 144.50
  A 0.39 0.39 0.0 0 0 184.93 144.73
  L 185.31 147.64
  A 0.35 0.35 0.0 0 0 186.00 147.69
  Q 186.47 146.06 185.66 144.50
  Z
  M 227.70 244.69
  C 230.38 239.51 231.08 235.99 232.68 228.98
  Q 238.02 205.50 234.67 181.54
  A 0.45 0.45 0.0 0 0 233.80 181.44
  Q 233.71 181.68 233.53 182.14
  Q 233.40 182.50 233.43 182.88
  Q 236.15 212.59 227.51 241.05
  Q 226.99 242.78 226.75 244.39
  A 0.51 0.50 -27.4 0 0 227.70 244.69
  Z
  M 225.60 254.30
  Q 226.40 254.58 226.43 253.74
  L 226.53 250.81
  Q 226.55 250.36 226.10 250.26
  C 204.95 245.81 183.73 247.42 162.62 252.22
  Q 161.97 252.37 161.90 253.03
  L 161.56 256.12
  Q 161.48 256.85 162.19 256.65
  C 180.31 251.48 198.97 248.99 217.71 251.90
  C 220.39 252.31 223.02 253.40 225.60 254.30
  Z"
/>
<path fill="#191919" d="
  M 130.56 127.54
  A 0.35 0.34 37.3 0 1 129.88 127.63
  C 128.04 120.34 128.61 112.53 130.63 105.09
  A 0.88 0.88 0.0 0 1 132.20 104.81
  Q 132.25 104.88 132.32 105.27
  Q 132.36 105.50 132.31 105.73
  Q 130.26 116.28 130.56 127.54
  Z"
/>
<path fill="#191919" d="
  M 179.27 116.98
  L 182.49 115.98
  A 0.76 0.76 0.0 0 1 183.16 117.31
  C 181.49 118.53 175.98 119.98 177.02 115.74
  Q 178.38 110.26 180.24 104.55
  A 0.51 0.51 0.0 0 1 181.19 104.52
  Q 181.46 105.18 181.17 106.19
  Q 179.68 111.29 178.76 116.53
  Q 178.65 117.17 179.27 116.98
  Z"
/>
<path fill="#191919" d="
  M 71.59 114.76
  Q 68.60 115.01 67.65 112.34
  Q 67.46 111.81 66.95 111.56
  L 62.47 109.41
  A 0.58 0.58 0.0 0 1 62.38 108.42
  L 66.80 105.17
  Q 67.37 104.75 67.82 105.30
  L 70.19 108.21
  A 0.86 0.86 0.0 0 0 70.84 108.53
  Q 73.66 108.60 74.58 111.23
  Q 74.73 111.68 75.21 111.77
  Q 79.54 112.55 79.13 116.87
  Q 79.09 117.37 79.48 117.68
  Q 83.18 120.61 80.67 124.90
  A 1.84 1.84 0.0 0 1 77.65 125.13
  Q 75.68 122.69 76.04 119.46
  A 0.66 0.65 7.6 0 0 75.48 118.73
  Q 72.68 118.35 72.41 115.45
  Q 72.34 114.70 71.59 114.76
  Z"
/>
<path fill="#191919" d="
  M 120.15 125.81
  A 0.69 0.69 0.0 0 1 119.01 126.36
  Q 118.19 125.65 118.01 124.25
  Q 116.78 114.88 118.25 105.59
  A 0.40 0.40 0.0 0 1 119.04 105.63
  L 120.15 125.81
  Z"
/>
<path fill="#191919" d="
  M 303.38 105.50
  A 0.15 0.15 0.0 0 1 303.39 105.29
  L 303.41 105.27
  A 3.52 1.36 45.8 0 1 306.84 106.85
  L 307.05 107.06
  A 3.52 1.36 45.8 0 1 308.53 110.53
  L 308.50 110.55
  A 0.15 0.15 0.0 0 1 308.29 110.55
  L 303.38 105.50
  Z"
/>
<path fill="#191919" d="
  M 193.64 106.42
  A 0.11 0.11 0.0 0 1 193.62 106.26
  L 193.65 106.23
  A 2.93 1.33 40.8 0 1 196.74 107.14
  L 197.01 107.38
  A 2.93 1.33 40.8 0 1 198.36 110.30
  L 198.33 110.33
  A 0.11 0.11 0.0 0 1 198.18 110.34
  L 193.64 106.42
  Z"
/>
<ellipse fill="#191919" cx="0.00" cy="0.00" transform="translate(300.85,108.87) rotate(53.3)" rx="2.78" ry="0.64"/>
<path fill="#191919" d="
  M 82.92 117.81
  L 81.27 116.28
  A 1.52 1.50 -74.8 0 1 80.83 115.50
  C 80.10 112.30 78.48 112.71 76.90 110.55
  Q 76.21 109.60 76.31 108.69
  Q 76.48 106.96 78.21 107.05
  Q 82.96 107.28 84.16 111.77
  Q 84.30 112.30 84.81 112.48
  Q 89.02 113.97 87.72 118.38
  Q 87.56 118.93 87.84 119.43
  Q 89.69 122.80 86.73 125.19
  Q 86.32 125.52 85.80 125.47
  C 82.40 125.12 81.37 121.51 83.06 118.84
  Q 83.42 118.27 82.92 117.81
  Z"
/>
<path fill="#191919" d="
  M 175.16 108.84
  L 174.01 109.23
  Q 173.33 109.46 173.54 108.77
  C 174.40 105.99 178.10 107.30 178.29 109.92
  Q 178.36 110.87 177.60 110.28
  L 175.95 108.98
  A 0.86 0.85 54.8 0 0 175.16 108.84
  Z"
/>
<path fill="#191919" d="
  M 185.36 109.75
  L 183.58 110.16
  Q 183.03 110.28 183.00 109.72
  Q 182.95 108.82 184.02 108.46
  Q 185.65 107.92 187.59 109.52
  A 1.14 1.14 0.0 0 1 186.58 111.51
  Q 186.26 111.44 186.25 110.45
  A 0.73 0.73 0.0 0 0 185.36 109.75
  Z"
/>
<path fill="#191919" d="
  M 297.74 112.53
  A 0.13 0.13 0.0 0 1 297.69 112.71
  L 297.64 112.74
  A 2.20 1.19 59.5 0 1 295.50 111.45
  L 295.25 111.03
  A 2.20 1.19 59.5 0 1 295.16 108.53
  L 295.21 108.50
  A 0.13 0.13 0.0 0 1 295.39 108.55
  L 297.74 112.53
  Z"
/>
<path fill="#191919" d="
  M 68.99 121.95
  Q 66.05 121.53 65.10 118.67
  A 0.67 0.66 -18.6 0 0 64.25 118.25
  Q 60.50 119.52 58.26 116.68
  Q 57.96 116.31 57.49 116.20
  L 52.55 115.04
  A 0.87 0.87 0.0 0 1 52.06 113.66
  L 55.51 109.24
  A 0.66 0.65 -52.8 0 1 56.40 109.11
  L 60.80 112.29
  Q 61.30 112.65 61.90 112.53
  Q 65.90 111.75 67.43 115.57
  Q 67.65 116.11 68.23 116.23
  Q 71.25 116.86 71.94 119.79
  Q 72.07 120.34 72.61 120.52
  Q 76.05 121.69 75.60 125.41
  A 1.49 1.47 6.0 0 1 73.99 126.70
  Q 70.23 126.34 69.58 122.53
  Q 69.49 122.02 68.99 121.95
  Z"
/>
<path fill="#14bef0" d="
  M 377.16 118.08
  Q 374.91 113.57 370.28 111.96
  A 0.58 0.58 0.0 0 1 370.55 110.83
  C 379.05 111.96 381.76 122.54 381.15 129.75
  A 0.44 0.44 0.0 0 1 380.37 130.00
  Q 380.07 129.63 380.00 129.01
  Q 379.26 122.26 377.16 118.08
  Z"
/>
<path fill="#14bef0" d="
  M 386.93 135.26
  C 387.52 126.06 388.87 119.36 382.61 112.01
  A 0.48 0.48 0.0 0 1 383.27 111.32
  C 390.52 116.96 390.50 127.52 387.87 135.45
  A 0.49 0.48 56.2 0 1 386.93 135.26
  Z"
/>
<path fill="#191919" d="
  M 195.74 114.40
  L 195.25 114.43
  A 0.88 0.74 -45.5 0 1 195.37 112.81
  C 199.48 112.32 199.70 117.63 199.10 120.25
  C 197.68 126.46 189.77 124.13 190.81 120.54
  A 0.75 0.74 41.3 0 1 192.21 120.45
  Q 193.03 122.35 195.23 121.90
  C 198.18 121.29 198.01 116.56 196.42 114.69
  Q 196.15 114.38 195.74 114.40
  Z"
/>
<path fill="#191919" d="
  M 274.47 116.63
  A 0.30 0.30 0.0 0 1 274.11 116.85
  L 274.01 116.83
  A 12.28 0.39 13.1 0 1 262.14 113.67
  L 262.41 112.52
  A 12.28 0.39 13.1 0 1 274.46 114.92
  L 274.55 114.94
  A 0.30 0.30 0.0 0 1 274.78 115.30
  L 274.47 116.63
  Z"
/>
<path fill="#191919" d="
  M 118.84 136.73
  C 120.48 139.88 123.03 144.60 120.85 148.00
  A 0.53 0.53 0.0 0 1 119.89 147.82
  C 119.46 145.71 119.44 143.52 118.61 141.57
  C 116.86 137.49 114.43 133.30 113.36 129.39
  Q 111.34 121.98 112.17 114.21
  A 0.38 0.38 0.0 0 1 112.79 113.95
  Q 113.31 114.37 113.32 114.98
  Q 113.50 122.66 115.93 130.36
  Q 116.54 132.29 118.84 136.73
  Z"
/>
<path fill="#191919" d="
  M 212.60 121.44
  Q 211.36 121.93 210.25 122.19
  A 0.44 0.43 -64.9 0 1 209.96 121.38
  Q 219.78 116.36 230.72 114.32
  Q 233.39 113.83 235.57 114.11
  A 0.68 0.68 0.0 0 1 235.57 115.45
  Q 223.69 117.02 212.60 121.44
  Z"
/>
<path fill="#191919" d="
  M 259.64 130.52
  Q 262.28 122.94 261.06 114.98
  A 0.56 0.56 0.0 0 1 262.02 114.50
  C 265.12 117.68 261.72 130.00 260.12 133.94
  A 0.67 0.66 -49.6 0 1 258.94 134.04
  Q 256.24 129.65 252.01 126.70
  A 0.57 0.57 0.0 0 1 251.87 125.92
  L 252.07 125.64
  A 0.44 0.44 0.0 0 1 252.62 125.49
  Q 256.37 127.30 258.80 130.65
  Q 259.34 131.40 259.64 130.52
  Z"
/>
<path fill="#191919" d="
  M 309.98 143.35
  L 311.30 146.31
  A 0.66 0.66 0.0 0 1 310.27 147.09
  Q 308.45 145.56 308.61 143.06
  Q 308.65 142.45 308.06 142.30
  Q 302.34 140.77 298.56 136.18
  A 0.43 0.43 0.0 0 1 299.15 135.57
  Q 302.04 137.79 305.32 139.77
  C 310.20 142.71 313.68 139.69 314.26 134.46
  Q 315.34 124.86 312.97 116.75
  A 0.40 0.40 0.0 0 1 313.45 116.25
  L 314.13 116.43
  A 0.40 0.39 87.0 0 1 314.41 116.69
  C 316.22 122.25 318.69 140.50 310.35 142.58
  Q 309.70 142.74 309.98 143.35
  Z"
/>
<path fill="#191919" d="
  M 58.35 123.66
  Q 56.08 125.32 54.04 123.33
  Q 53.66 122.97 53.24 123.27
  Q 50.53 125.20 47.79 123.35
  A 0.97 0.96 -35.4 0 0 47.01 123.22
  L 42.51 124.36
  A 0.64 0.63 82.0 0 1 41.72 123.76
  L 41.57 117.42
  A 1.00 1.00 0.0 0 1 43.06 116.53
  L 47.13 118.82
  Q 47.62 119.10 48.14 118.87
  Q 51.11 117.52 53.82 119.22
  A 0.86 0.86 0.0 0 0 54.78 119.19
  Q 56.86 117.72 58.81 119.40
  A 1.02 1.01 -31.5 0 0 59.70 119.61
  Q 64.17 118.47 65.58 122.64
  A 1.00 0.99 60.2 0 1 65.29 123.72
  Q 62.27 126.30 59.26 123.69
  Q 58.82 123.32 58.35 123.66
  Z"
/>
<path fill="#191919" d="
  M 308.31 125.98
  A 0.61 0.61 0.0 0 0 308.47 124.93
  Q 305.69 122.70 305.24 119.02
  A 0.35 0.34 -60.0 0 1 305.90 118.84
  Q 307.40 122.48 310.42 125.01
  Q 310.87 125.39 310.51 125.86
  Q 308.84 128.00 306.16 128.21
  A 0.65 0.65 0.0 0 1 305.86 126.96
  L 308.31 125.98
  Z"
/>
<path fill="#191919" d="
  M 309.94 120.30
  L 309.56 120.97
  Q 309.21 121.60 308.96 120.92
  Q 308.68 120.18 309.27 119.52
  Q 310.50 118.15 312.37 119.56
  A 0.67 0.67 0.0 0 1 311.59 120.65
  L 310.76 120.11
  Q 310.24 119.76 309.94 120.30
  Z"
/>
<path fill="#191919" d="
  M 300.95 122.87
  L 299.93 124.17
  Q 299.49 124.72 299.37 124.03
  C 298.89 121.37 302.68 119.43 303.56 122.88
  A 0.55 0.55 0.0 0 1 302.68 123.45
  L 301.82 122.77
  Q 301.33 122.39 300.95 122.87
  Z"
/>
<path fill="#191919" d="
  M 137.14 134.40
  C 135.56 138.00 135.08 140.14 135.49 143.70
  A 0.57 0.57 0.0 0 1 134.41 144.00
  C 133.26 141.48 133.39 139.12 134.53 136.36
  Q 137.27 129.74 137.42 122.25
  A 0.88 0.88 0.0 0 1 138.31 121.39
  Q 139.29 121.41 139.33 123.01
  Q 139.49 129.01 137.14 134.40
  Z"
/>
<path fill="#191919" d="
  M 360.07 132.24
  C 358.69 134.64 358.05 137.31 357.30 139.99
  A 0.37 0.37 0.0 0 1 356.57 139.88
  Q 356.88 130.98 363.07 124.56
  Q 363.81 123.79 364.52 124.11
  A 0.72 0.71 30.8 0 1 364.80 125.20
  Q 362.12 128.66 360.07 132.24
  Z"
/>
<path fill="#191919" d="
  M 51.87 127.08
  Q 54.37 124.73 57.37 126.48
  Q 57.93 126.81 58.45 126.43
  Q 61.06 124.51 63.59 126.70
  A 0.93 0.91 56.2 0 0 64.46 126.88
  C 67.44 125.91 70.49 127.99 68.95 131.16
  C 67.79 133.55 64.76 133.87 62.87 131.85
  A 0.58 0.57 -40.8 0 0 62.09 131.80
  Q 59.89 133.59 57.70 131.92
  Q 57.28 131.60 56.79 131.80
  Q 56.21 132.03 55.78 132.53
  A 1.13 1.09 -78.7 0 1 55.29 132.87
  Q 53.39 133.58 51.96 132.28
  A 0.55 0.55 0.0 0 0 51.12 132.39
  Q 48.80 136.13 44.84 133.98
  Q 44.45 133.77 44.10 134.04
  L 41.06 136.28
  A 0.71 0.71 0.0 0 1 39.98 135.97
  L 37.61 129.94
  Q 37.40 129.39 37.96 129.21
  Q 40.48 128.39 43.07 128.98
  Q 43.62 129.11 44.00 128.68
  Q 46.97 125.37 51.06 127.21
  Q 51.51 127.42 51.87 127.08
  Z"
/>
<path fill="#191919" d="
  M 200.49 125.82
  L 205.45 129.28
  A 0.82 0.81 71.9 0 1 204.72 130.72
  Q 201.38 129.56 199.98 126.23
  A 0.34 0.34 0.0 0 1 200.49 125.82
  Z"
/>
<path fill="#191919" d="
  M 59.66 165.26
  Q 61.21 160.61 60.32 155.80
  Q 60.23 155.30 59.78 155.09
  Q 56.74 153.68 56.05 150.40
  A 0.42 0.41 37.8 0 0 55.23 150.50
  Q 55.34 152.90 53.78 154.59
  A 0.99 0.98 58.3 0 0 53.56 155.54
  Q 54.54 158.93 51.88 161.11
  Q 51.48 161.44 51.56 161.96
  L 51.96 164.39
  A 0.88 0.88 0.0 0 1 50.97 165.41
  L 45.36 164.67
  A 0.76 0.76 0.0 0 1 44.80 163.54
  L 47.21 159.35
  Q 47.50 158.84 47.18 158.34
  Q 45.12 155.18 48.16 152.77
  Q 48.58 152.44 48.47 151.91
  Q 47.71 148.23 51.01 146.56
  Q 51.45 146.34 51.51 145.85
  C 51.80 143.35 53.40 142.25 55.84 143.29
  Q 56.35 143.51 56.67 143.06
  Q 59.38 139.26 62.77 142.47
  A 0.41 0.41 0.0 0 1 62.33 143.15
  L 60.86 142.52
  Q 60.42 142.34 60.00 142.54
  Q 58.49 143.25 58.04 145.50
  Q 56.99 150.80 60.75 153.44
  A 0.82 0.81 -43.8 0 0 61.67 153.45
  L 63.86 152.02
  A 0.76 0.76 0.0 0 1 65.02 152.80
  Q 64.60 154.84 62.45 155.14
  Q 61.85 155.22 61.99 155.80
  C 62.50 158.06 63.44 164.18 61.39 165.80
  Q 59.98 166.92 61.54 167.80
  Q 68.51 171.73 76.29 173.76
  Q 76.74 173.88 76.95 173.45
  Q 77.72 171.89 78.07 170.20
  C 78.53 168.03 77.33 166.32 77.45 163.89
  Q 77.48 163.38 76.99 163.25
  C 74.92 162.69 67.79 159.17 68.77 156.22
  A 0.77 0.77 0.0 0 1 70.09 155.97
  C 72.84 159.26 75.99 161.81 80.58 161.37
  C 94.16 160.09 87.60 135.10 85.64 127.51
  Q 85.54 127.10 85.92 126.93
  L 86.17 126.81
  Q 86.68 126.57 86.89 127.10
  C 89.91 134.88 93.69 151.16 88.58 158.52
  Q 85.41 163.08 79.04 163.62
  A 0.44 0.44 0.0 0 0 78.84 164.42
  L 79.62 164.93
  Q 80.10 165.24 80.14 165.81
  Q 80.48 170.95 78.04 175.42
  Q 77.77 175.91 77.22 175.81
  C 71.48 174.74 59.36 171.07 57.86 165.15
  Q 57.71 164.58 58.29 164.71
  Q 58.81 164.83 59.08 165.31
  Q 59.43 165.94 59.66 165.26
  Z"
/>
<path fill="#191919" d="
  M 363.76 134.85
  Q 363.01 136.62 363.14 134.71
  C 363.28 132.56 366.13 126.57 369.14 126.81
  A 0.40 0.40 0.0 0 1 369.36 127.52
  Q 365.60 130.52 363.76 134.85
  Z"
/>
<path fill="#191919" d="
  M 202.66 132.89
  C 199.80 133.46 197.94 131.51 197.23 128.77
  A 0.62 0.62 0.0 0 1 198.40 128.35
  Q 199.69 131.10 202.64 131.60
  A 0.66 0.66 0.0 0 1 202.66 132.89
  Z"
/>
<path fill="#191919" d="
  M 303.40 132.56
  Q 303.87 135.92 306.88 137.14
  C 310.32 138.53 311.00 135.11 311.41 132.81
  A 0.72 0.72 0.0 0 1 312.83 132.97
  C 312.39 142.63 301.84 139.11 301.97 131.05
  Q 301.98 130.52 302.50 130.53
  C 304.17 130.57 305.85 131.28 307.33 131.14
  Q 309.60 130.93 311.58 129.67
  Q 312.19 129.28 312.61 129.61
  A 0.65 0.64 -44.2 0 1 312.59 130.64
  Q 308.56 133.53 303.75 132.25
  Q 303.34 132.14 303.40 132.56
  Z"
/>
<path fill="#191919" d="
  M 372.36 131.37
  C 370.02 132.67 367.82 134.85 365.91 136.80
  A 0.39 0.39 0.0 0 1 365.31 136.31
  Q 367.95 132.43 371.72 129.64
  A 0.77 0.76 66.4 0 1 372.93 130.12
  Q 373.09 130.97 372.36 131.37
  Z"
/>
<path fill="#191919" d="
  M 254.32 136.56
  Q 252.20 133.22 249.50 130.32
  A 0.28 0.28 0.0 0 1 249.59 129.87
  Q 249.74 129.81 249.87 129.75
  Q 250.02 129.68 250.15 129.78
  Q 255.27 133.99 257.59 140.27
  A 0.50 0.50 0.0 0 1 256.78 140.82
  C 255.65 139.82 254.95 137.56 254.32 136.56
  Z"
/>
<path fill="#191919" d="
  M 83.94 134.67
  Q 82.44 135.39 81.56 133.89
  Q 81.23 133.30 81.79 132.93
  Q 84.18 131.36 86.41 133.65
  A 0.87 0.87 0.0 0 1 85.29 134.97
  L 84.97 134.75
  Q 84.48 134.41 83.94 134.67
  Z"
/>
<path fill="#191919" d="
  M 251.47 141.56
  Q 248.97 136.89 245.15 133.17
  A 0.21 0.21 0.0 0 1 245.24 132.81
  Q 245.39 132.77 245.52 132.73
  Q 245.62 132.70 245.70 132.76
  C 247.90 134.33 252.66 138.44 252.43 141.36
  A 0.51 0.51 0.0 0 1 251.47 141.56
  Z"
/>
<path fill="#191919" d="
  M 43.81 148.45
  L 41.23 152.97
  A 0.65 0.65 0.0 0 1 40.27 153.16
  Q 37.82 151.25 36.86 148.28
  A 1.05 1.04 -25.8 0 1 37.28 147.08
  Q 39.83 145.39 40.72 142.69
  C 41.51 140.29 42.19 139.24 44.65 139.03
  Q 45.17 138.98 45.39 138.50
  Q 47.10 134.69 51.26 135.43
  Q 51.79 135.53 52.17 135.15
  Q 54.48 132.80 57.58 134.03
  Q 58.07 134.23 58.51 133.93
  C 65.20 129.41 66.12 142.34 58.41 139.25
  Q 57.85 139.03 57.60 139.57
  Q 56.16 142.57 53.10 141.77
  Q 52.51 141.62 52.15 142.11
  Q 50.98 143.66 49.02 143.96
  A 0.65 0.64 -88.7 0 0 48.49 144.47
  Q 47.87 147.70 44.58 147.96
  Q 44.06 148.00 43.81 148.45
  Z"
/>
<path fill="#191919" d="
  M 73.49 133.97
  L 74.26 133.27
  A 0.41 0.40 -42.5 0 1 74.83 133.29
  L 75.75 134.31
  Q 76.19 134.79 75.65 135.14
  L 70.90 138.23
  A 1.05 1.05 0.0 0 1 69.42 136.82
  Q 70.53 134.88 72.66 134.39
  Q 73.13 134.29 73.49 133.97
  Z"
/>
<path fill="#191919" d="
  M 296.94 135.43
  Q 298.88 140.15 298.01 145.84
  A 1.00 1.00 0.0 0 1 296.15 146.18
  L 295.85 145.64
  A 0.61 0.59 -55.5 0 1 295.78 145.23
  Q 296.83 139.97 295.37 134.77
  A 0.45 0.45 0.0 0 1 296.09 134.30
  Q 296.68 134.78 296.94 135.43
  Z"
/>
<path fill="#191919" d="
  M 149.20 144.21
  Q 149.41 151.78 154.83 156.97
  A 0.70 0.70 0.0 0 1 154.19 158.15
  Q 154.05 158.12 153.84 158.06
  Q 153.55 157.97 153.33 157.75
  Q 147.65 151.74 147.80 143.45
  A 0.84 0.84 0.0 0 1 148.31 142.68
  Q 149.71 142.06 150.26 140.65
  Q 150.51 140.02 151.16 139.82
  L 152.33 139.46
  Q 152.68 139.35 152.82 139.00
  Q 153.82 136.46 156.56 136.98
  Q 157.10 137.08 157.36 136.59
  C 158.70 134.04 162.06 135.63 162.69 137.71
  A 0.35 0.35 0.0 0 1 162.18 138.12
  L 159.81 136.78
  Q 158.99 136.31 158.71 137.22
  L 158.07 139.34
  A 0.59 0.58 32.8 0 1 157.07 139.55
  L 156.47 138.86
  A 1.27 1.27 0.0 0 0 154.28 139.41
  L 153.86 141.24
  A 0.44 0.44 0.0 0 1 153.21 141.53
  L 152.27 141.02
  A 0.62 0.61 -70.8 0 0 151.37 141.46
  L 150.99 143.60
  Q 150.90 144.12 150.39 143.97
  L 149.76 143.78
  Q 149.18 143.60 149.20 144.21
  Z"
/>
<path fill="#191919" d="
  M 264.34 144.95
  C 264.18 148.85 260.57 151.64 262.00 155.53
  A 0.44 0.44 0.0 0 1 261.24 155.96
  C 258.45 152.51 262.88 148.20 262.78 144.10
  C 262.72 141.96 261.90 137.11 263.55 135.49
  A 0.52 0.51 67.3 0 1 264.42 135.85
  Q 264.52 140.64 264.34 144.95
  Z"
/>
<path fill="#191919" d="
  M 362.60 157.26
  A 0.14 0.14 0.0 0 1 362.38 157.29
  C 360.29 155.27 363.53 151.48 364.79 149.68
  C 368.18 144.79 367.02 138.64 372.80 135.32
  A 0.43 0.43 0.0 0 1 373.33 135.98
  C 371.03 138.51 369.78 140.73 368.91 144.31
  C 367.66 149.40 365.10 152.34 362.60 157.26
  Z"
/>
<path fill="#191919" d="
  M 83.06 146.74
  Q 81.75 141.66 78.45 136.79
  Q 78.11 136.30 78.49 135.70
  A 0.50 0.50 0.0 0 1 79.31 135.65
  C 80.84 137.58 85.96 145.34 84.08 148.49
  A 1.14 1.14 0.0 0 1 83.02 149.04
  L 78.50 148.68
  A 0.95 0.94 -46.0 0 1 78.47 146.80
  Q 80.52 146.56 82.48 147.27
  A 0.44 0.44 0.0 0 0 83.06 146.74
  Z"
/>
<path fill="#191919" d="
  M 354.23 151.06
  C 349.29 146.12 351.58 142.85 349.54 137.27
  A 0.77 0.76 1.9 0 1 350.57 136.31
  C 352.64 137.23 352.45 142.07 352.61 144.01
  C 352.99 148.81 357.93 149.63 355.60 155.52
  A 0.58 0.58 0.0 0 1 354.48 155.30
  L 354.54 151.83
  A 1.06 1.05 23.3 0 0 354.23 151.06
  Z"
/>
<path fill="#191919" d="
  M 249.44 145.90
  Q 246.13 140.96 241.52 137.22
  A 0.42 0.41 79.1 0 1 241.98 136.53
  C 245.43 138.51 247.38 140.77 249.87 143.72
  Q 250.78 144.80 250.16 145.88
  A 0.43 0.42 43.2 0 1 249.44 145.90
  Z"
/>
<ellipse fill="#191919" cx="0.00" cy="0.00" transform="translate(84.98,139.42) rotate(72.1)" rx="1.36" ry="1.04"/>
<ellipse fill="#191919" cx="0.00" cy="0.00" transform="translate(75.06,141.62) rotate(73.6)" rx="1.62" ry="1.16"/>
<path fill="#191919" d="
  M 336.47 150.24
  L 335.75 150.34
  Q 335.14 150.43 335.11 149.82
  L 335.04 148.23
  A 0.63 0.63 0.0 0 0 334.21 147.65
  L 332.79 148.11
  A 0.43 0.43 0.0 0 1 332.23 147.63
  Q 332.51 145.85 331.04 144.84
  A 0.76 0.75 -51.1 0 0 330.05 144.95
  L 329.07 146.01
  A 0.52 0.52 0.0 0 1 328.19 145.79
  L 327.55 143.37
  Q 327.32 142.51 326.57 142.97
  L 324.15 144.44
  A 0.39 0.38 81.9 0 1 323.58 144.01
  Q 323.72 143.50 324.31 143.01
  Q 327.29 140.49 329.20 143.29
  Q 329.47 143.68 329.93 143.53
  C 332.84 142.54 332.74 146.02 335.31 146.34
  A 0.82 0.81 -6.4 0 1 335.98 146.87
  Q 336.56 148.38 337.96 149.21
  A 0.94 0.94 0.0 0 1 338.42 149.98
  C 338.64 155.70 336.71 158.83 333.86 163.41
  Q 333.18 164.50 332.81 164.55
  Q 330.06 164.91 332.07 162.78
  Q 336.81 157.78 337.04 150.75
  Q 337.06 150.15 336.47 150.24
  Z"
/>
<path fill="#191919" d="
  M 245.70 146.94
  Q 243.95 144.43 241.27 142.78
  Q 240.89 142.54 241.23 142.26
  Q 241.43 142.09 241.61 142.21
  C 243.17 143.33 244.76 143.97 246.20 145.34
  C 248.99 148.00 248.17 152.02 251.34 154.54
  C 252.63 155.56 255.15 156.94 254.57 158.92
  A 0.47 0.46 -54.2 0 1 253.74 159.06
  Q 251.87 156.38 249.04 154.73
  A 1.71 1.66 -86.9 0 1 248.34 153.93
  C 247.32 151.48 247.12 148.98 245.70 146.94
  Z"
/>
<path fill="#191919" d="
  M 359.88 142.73
  A 0.14 0.14 0.0 0 1 360.01 142.58
  L 360.02 142.58
  A 3.42 1.39 87.4 0 1 361.56 145.94
  L 361.58 146.19
  A 3.42 1.39 87.4 0 1 360.34 149.67
  L 360.33 149.67
  A 0.14 0.14 0.0 0 1 360.19 149.54
  L 359.88 142.73
  Z"
/>
<path fill="#191919" d="
  M 164.97 151.39
  Q 165.49 152.70 165.68 153.76
  A 0.55 0.55 0.0 0 1 164.66 154.12
  Q 161.76 148.83 162.75 142.79
  Q 162.78 142.57 163.00 142.64
  Q 163.14 142.68 163.28 142.72
  Q 163.48 142.78 163.47 142.98
  Q 163.35 147.35 164.97 151.39
  Z"
/>
<path fill="#191919" d="
  M 160.57 155.63
  C 159.41 152.42 158.07 149.11 158.18 145.59
  A 0.24 0.24 0.0 0 1 158.65 145.52
  L 162.20 155.90
  A 0.46 0.46 0.0 0 1 161.78 156.51
  Q 160.90 156.54 160.57 155.63
  Z"
/>
<path fill="#191919" d="
  M 256.59 153.51
  A 0.15 0.15 0.0 0 1 256.43 153.65
  L 256.31 153.64
  A 3.35 1.47 -86.0 0 1 255.08 150.20
  L 255.11 149.82
  A 3.35 1.47 -86.0 0 1 256.81 146.58
  L 256.93 146.59
  A 0.15 0.15 0.0 0 1 257.06 146.75
  L 256.59 153.51
  Z"
/>
<path fill="#14bef0" d="
  M 347.83 168.04
  L 352.09 158.76
  A 1.25 1.24 16.0 0 1 353.40 158.04
  L 363.74 159.46
  Q 364.20 159.52 364.24 159.98
  Q 366.33 187.22 356.00 211.47
  C 351.25 222.63 340.11 225.54 331.62 216.37
  Q 331.18 215.89 331.00 216.51
  L 329.89 220.28
  Q 329.78 220.67 329.38 220.64
  L 310.52 219.31
  Q 310.00 219.27 309.84 218.78
  L 308.86 215.67
  A 1.27 1.24 -39.0 0 1 308.98 214.67
  C 313.25 207.39 314.36 197.11 306.24 191.99
  A 0.68 0.68 0.0 0 1 305.95 191.24
  Q 308.48 181.71 301.18 175.57
  Q 300.67 175.14 300.82 174.49
  Q 303.45 162.82 293.91 155.97
  A 0.71 0.70 -62.2 0 1 293.66 155.16
  Q 295.11 151.21 294.57 147.03
  A 0.51 0.51 0.0 0 1 295.39 146.57
  Q 303.46 153.13 312.04 146.84
  A 1.08 1.06 -58.3 0 1 312.81 146.65
  L 320.13 147.64
  Q 320.69 147.72 320.70 148.28
  Q 320.78 153.50 318.86 158.25
  C 317.86 160.74 318.21 163.15 321.30 163.27
  Q 321.88 163.29 322.12 163.82
  Q 322.88 165.59 325.00 165.20
  A 0.87 0.86 68.8 0 1 325.88 165.59
  Q 327.13 167.60 329.17 166.57
  A 0.63 0.62 37.8 0 1 329.59 166.52
  L 331.71 167.02
  Q 332.32 167.16 332.83 166.79
  Q 337.49 163.39 339.36 157.89
  Q 339.56 157.28 340.03 157.71
  Q 344.75 162.04 347.10 168.02
  A 0.40 0.40 0.0 0 0 347.83 168.04
  Z
  M 346.28 170.31
  C 342.57 179.70 339.33 192.50 340.38 202.54
  A 0.47 0.47 0.0 0 0 341.27 202.71
  Q 341.52 202.23 341.56 201.50
  Q 342.56 185.88 347.48 171.03
  Q 347.58 170.74 347.55 170.49
  Q 347.49 170.08 347.33 169.98
  A 0.71 0.71 0.0 0 0 346.28 170.31
  Z
  M 334.26 172.38
  C 335.18 179.18 338.41 188.63 335.80 195.02
  C 333.48 200.68 329.25 208.44 331.70 212.00
  Q 332.22 212.75 332.37 211.86
  Q 333.47 205.29 336.08 199.21
  C 340.17 189.64 338.19 182.24 335.16 172.24
  Q 335.12 172.12 335.00 172.09
  Q 334.82 172.05 334.65 172.01
  A 0.33 0.33 0.0 0 0 334.26 172.38
  Z"
/>
<path fill="#191919" d="
  M 158.94 158.01
  A 0.06 0.06 0.0 0 1 158.91 158.09
  L 158.90 158.10
  A 4.78 1.73 66.3 0 1 155.39 154.42
  L 154.76 152.97
  A 4.78 1.73 66.3 0 1 154.42 147.90
  L 154.43 147.89
  A 0.06 0.06 0.0 0 1 154.51 147.92
  L 158.94 158.01
  Z"
/>
<path fill="#191919" d="
  M 320.42 160.07
  C 321.75 156.55 322.88 154.23 322.79 149.82
  Q 322.78 149.45 322.95 149.31
  Q 323.07 149.22 323.23 149.20
  Q 323.58 149.16 323.62 149.51
  Q 324.26 155.14 321.83 160.19
  Q 321.59 160.68 321.22 160.78
  Q 320.97 160.85 320.74 160.77
  A 0.54 0.53 -69.9 0 1 320.42 160.07
  Z"
/>
<path fill="#191919" d="
  M 77.29 153.10
  Q 77.89 155.44 80.25 155.89
  Q 80.82 156.00 81.27 155.63
  L 82.72 154.43
  A 1.06 1.06 0.0 0 1 84.32 155.76
  Q 82.96 158.21 80.52 158.11
  C 77.30 157.97 75.57 154.34 74.56 151.61
  Q 74.18 150.59 75.27 150.62
  Q 78.66 150.70 82.48 150.47
  Q 83.65 150.40 84.35 151.28
  Q 84.87 151.93 84.04 152.00
  L 77.69 152.53
  Q 77.15 152.57 77.29 153.10
  Z"
/>
<path fill="#191919" d="
  M 326.59 159.56
  Q 325.73 162.21 324.35 163.23
  A 0.37 0.37 0.0 0 1 323.78 162.79
  L 326.24 156.54
  Q 326.45 156.01 326.54 155.45
  Q 326.84 153.54 327.63 151.79
  A 0.32 0.32 0.0 0 1 328.24 151.93
  Q 328.16 154.69 326.59 159.56
  Z"
/>
<path fill="#191919" d="
  M 332.40 155.01
  C 332.26 157.85 330.76 162.53 328.55 164.38
  A 0.65 0.65 0.0 0 1 327.55 163.60
  L 331.75 154.84
  A 0.34 0.34 0.0 0 1 332.40 155.01
  Z"
/>
<path fill="#14bef0" d="
  M 287.88 212.63
  C 285.83 215.48 283.34 218.68 280.59 220.32
  C 273.75 224.42 267.17 218.36 263.88 212.41
  C 255.76 197.73 253.51 177.93 253.98 161.42
  Q 254.00 160.89 254.50 160.70
  L 263.04 157.46
  Q 263.57 157.26 263.94 157.68
  L 268.94 163.34
  A 0.50 0.50 0.0 0 0 269.66 163.38
  L 276.82 156.70
  Q 277.23 156.32 277.53 156.79
  L 280.07 160.69
  Q 280.37 161.15 280.26 161.68
  Q 277.81 173.54 287.82 179.88
  Q 288.27 180.17 288.19 180.69
  Q 286.75 190.07 293.80 196.06
  Q 294.17 196.38 294.02 196.84
  Q 290.81 206.97 298.52 214.00
  A 1.04 1.04 0.0 0 1 298.87 214.88
  L 298.41 219.76
  Q 298.37 220.15 297.98 220.21
  L 290.69 221.39
  Q 290.10 221.48 289.98 220.90
  L 288.37 212.74
  Q 288.24 212.12 287.88 212.63
  Z
  M 269.54 165.86
  Q 275.93 179.10 279.97 193.71
  A 0.52 0.52 0.0 0 0 280.98 193.65
  Q 281.09 192.87 280.86 191.78
  Q 277.83 177.58 270.58 165.11
  A 0.54 0.53 75.4 0 0 270.14 164.85
  Q 269.04 164.83 269.54 165.86
  Z"
/>
<path fill="#191919" d="
  M 124.24 217.05
  Q 138.05 208.35 152.90 201.54
  Q 153.34 201.33 153.50 200.88
  C 155.25 195.85 159.16 196.19 162.71 199.11
  Q 165.69 201.56 167.80 204.77
  A 1.11 1.10 35.4 0 1 167.95 205.63
  Q 166.62 211.08 161.50 213.34
  Q 161.07 213.53 160.89 213.97
  Q 156.28 225.20 149.47 235.22
  C 144.57 242.42 132.86 255.82 122.97 255.53
  A 0.83 0.81 74.8 0 1 122.32 255.15
  L 121.82 254.34
  A 0.60 0.60 0.0 0 1 122.32 253.42
  C 128.77 253.29 133.14 249.68 137.86 245.37
  C 147.53 236.54 154.89 224.39 159.60 212.23
  A 0.99 0.99 0.0 0 0 159.46 211.27
  L 153.59 203.72
  A 0.61 0.61 0.0 0 0 152.86 203.53
  Q 138.25 210.03 124.79 218.67
  Q 124.35 218.95 124.33 219.47
  L 124.13 224.04
  A 0.73 0.72 42.1 0 1 122.69 224.11
  Q 120.30 208.33 116.15 193.18
  C 111.69 176.93 97.59 167.58 81.40 165.91
  A 0.43 0.43 0.0 0 1 81.20 165.13
  C 84.32 163.01 95.14 167.26 98.61 168.92
  Q 112.55 175.60 117.23 190.22
  Q 120.32 199.89 123.72 216.83
  Q 123.81 217.32 124.24 217.05
  Z
  M 157.66 198.55
  Q 155.59 199.53 154.60 201.62
  Q 154.39 202.08 154.70 202.47
  L 161.34 210.83
  Q 161.80 211.41 162.28 210.84
  L 165.96 206.43
  A 0.79 0.79 0.0 0 0 166.00 205.48
  Q 163.08 201.33 158.82 198.62
  Q 158.26 198.27 157.66 198.55
  Z"
/>
<path fill="#191919" d="
  M 55.22 281.29
  Q 29.89 284.83 17.46 264.03
  C 10.76 252.83 9.71 239.39 11.01 226.05
  Q 13.90 196.29 37.34 175.61
  Q 45.98 167.98 56.03 165.23
  Q 56.53 165.09 56.65 165.60
  Q 56.73 165.96 56.38 166.11
  Q 39.25 173.22 28.07 188.08
  Q 9.70 212.53 13.26 244.00
  C 15.58 264.49 28.90 281.52 51.25 279.67
  C 69.42 278.16 83.59 267.16 97.64 257.77
  Q 98.04 257.50 97.87 257.06
  L 92.63 243.10
  Q 92.45 242.64 91.96 242.62
  C 78.18 242.02 62.66 243.05 49.52 247.41
  Q 43.30 249.47 40.93 251.12
  Q 37.73 253.34 35.57 254.06
  A 0.53 0.53 0.0 0 1 35.01 253.21
  C 40.64 246.86 54.20 243.59 62.23 242.49
  Q 76.98 240.46 91.90 240.56
  C 96.74 240.59 99.33 236.36 104.46 238.40
  A 0.80 0.79 31.1 0 0 105.33 238.19
  C 108.13 235.04 110.03 231.31 114.07 229.53
  Q 117.49 228.02 120.29 225.56
  A 0.71 0.71 0.0 0 1 121.47 226.13
  C 121.34 229.49 113.99 231.36 111.51 233.84
  Q 108.94 236.39 106.58 239.14
  Q 106.28 239.49 106.45 239.91
  L 109.77 248.06
  Q 109.93 248.44 110.34 248.46
  Q 117.63 248.89 123.06 244.12
  A 1.48 1.46 -65.0 0 1 124.06 243.75
  Q 129.29 243.82 133.85 246.36
  Q 134.40 246.67 134.04 247.18
  L 133.84 247.47
  A 0.16 0.16 0.0 0 1 133.68 247.53
  L 124.87 245.58
  A 0.80 0.78 29.2 0 0 124.16 245.77
  Q 118.34 251.14 110.43 250.16
  Q 109.89 250.10 109.93 250.64
  C 110.35 255.79 104.00 256.24 100.44 257.20
  Q 99.97 257.32 99.67 257.70
  Q 97.96 259.84 94.35 262.34
  C 81.35 271.36 72.13 277.57 58.03 280.69
  A 0.99 0.99 0.0 0 0 57.33 281.27
  C 48.82 301.29 44.50 321.93 40.29 343.21
  A 0.74 0.74 0.0 0 1 39.10 343.64
  Q 38.54 343.17 38.74 342.00
  Q 43.10 316.47 51.11 291.84
  Q 52.19 288.53 55.59 281.81
  Q 55.90 281.19 55.22 281.29
  Z
  M 94.60 243.36
  L 98.58 254.53
  A 1.83 1.83 0.0 0 0 100.91 255.64
  L 105.47 254.02
  A 4.91 4.27 70.4 0 0 107.85 247.96
  L 105.94 242.59
  A 4.91 4.27 70.4 0 0 100.27 239.40
  L 95.71 241.02
  A 1.83 1.83 0.0 0 0 94.60 243.36
  Z"
/>
<path fill="#191919" d="
  M 86.38 181.28
  Q 85.99 173.99 82.29 167.69
  A 0.46 0.45 65.3 0 1 82.53 167.03
  Q 82.91 166.89 83.19 166.94
  Q 83.45 166.98 83.66 167.30
  Q 88.97 175.34 87.81 184.69
  A 0.76 0.76 0.0 0 1 86.43 185.04
  Q 83.32 180.68 78.86 177.68
  A 0.63 0.63 0.0 0 1 79.45 176.58
  Q 83.34 178.19 85.83 181.48
  Q 86.44 182.28 86.38 181.28
  Z"
/>
<path fill="#191919" d="
  M 71.40 187.14
  Q 73.17 181.84 76.19 177.18
  Q 76.64 176.48 77.28 177.00
  A 0.65 0.64 -54.7 0 1 77.42 177.86
  Q 73.89 183.38 72.56 189.79
  A 0.67 0.66 -63.6 0 1 71.47 190.16
  C 65.45 184.84 58.57 177.55 56.68 169.49
  Q 56.53 168.84 56.84 168.37
  A 0.59 0.58 55.3 0 1 57.90 168.57
  C 59.43 175.38 65.94 182.49 70.84 187.27
  Q 71.22 187.65 71.40 187.14
  Z"
/>
<path fill="#191919" d="
  M 187.99 176.98
  Q 181.84 184.31 173.96 189.41
  A 0.41 0.41 0.0 0 1 173.45 188.78
  L 186.61 175.78
  A 1.30 1.29 30.4 0 1 187.86 175.46
  Q 188.99 175.78 187.99 176.98
  Z"
/>
<path fill="#191919" d="
  M 180.63 189.44
  A 0.42 0.42 0.0 0 1 179.99 189.08
  L 179.99 188.56
  A 0.34 0.32 -20.9 0 1 180.11 188.31
  Q 186.86 183.09 192.46 176.74
  A 0.85 0.85 0.0 0 1 193.91 177.07
  Q 194.18 178.04 193.15 179.16
  Q 187.67 185.14 180.63 189.44
  Z"
/>
<path fill="#191919" d="
  M 166.15 192.35
  Q 164.85 195.92 161.56 197.20
  A 0.50 0.49 -80.2 0 1 161.01 196.41
  Q 163.18 193.87 164.58 190.85
  C 167.40 184.79 169.63 181.55 175.02 178.20
  A 0.56 0.55 -17.9 0 1 175.87 178.63
  C 175.95 179.67 175.50 180.53 174.60 181.17
  Q 168.68 185.37 166.15 192.35
  Z"
/>
<path fill="#191919" d="
  M 195.59 183.88
  C 192.78 187.47 187.70 191.60 183.31 192.82
  A 0.51 0.51 0.0 0 1 182.90 191.89
  Q 189.31 187.96 194.48 182.51
  A 0.90 0.89 -48.9 0 1 195.69 182.42
  Q 196.32 182.93 195.59 183.88
  Z"
/>
<path fill="#14bef0" d="
  M 83.55 232.95
  L 83.78 235.34
  Q 83.85 236.07 83.14 235.88
  L 82.59 235.73
  Q 82.02 235.58 81.97 234.99
  L 77.75 189.34
  Q 77.70 188.74 77.31 188.28
  L 75.55 186.18
  A 0.36 0.36 0.0 0 1 76.07 185.68
  L 78.08 187.48
  Q 78.44 187.81 78.93 187.83
  Q 82.30 187.98 83.20 184.97
  A 0.39 0.39 0.0 0 1 83.96 185.01
  Q 84.20 186.29 83.76 187.50
  Q 83.59 187.98 83.76 188.46
  L 100.71 235.54
  Q 101.29 237.13 99.65 236.69
  L 84.06 232.51
  A 0.41 0.41 0.0 0 0 83.55 232.95
  Z
  M 83.49 191.52
  A 0.02 0.02 0.0 0 0 83.51 191.50
  L 83.20 188.52
  Q 83.16 188.12 82.76 188.20
  L 79.54 188.91
  A 0.69 0.69 0.0 0 0 79.48 190.24
  L 83.49 191.52
  Z
  M 80.18 197.34
  A 0.32 0.32 0.0 0 0 80.37 197.59
  L 85.41 199.72
  A 0.32 0.32 0.0 0 0 85.85 199.34
  L 84.17 193.47
  A 0.32 0.32 0.0 0 0 84.00 193.27
  L 79.96 191.44
  A 0.32 0.32 0.0 0 0 79.51 191.76
  L 80.18 197.34
  Z
  M 90.77 212.91
  L 86.92 202.22
  Q 86.78 201.82 86.40 201.66
  L 80.72 199.22
  Q 80.26 199.03 80.31 199.52
  L 81.03 207.07
  Q 81.07 207.49 81.43 207.72
  L 90.41 213.20
  Q 91.00 213.56 90.77 212.91
  Z
  M 94.86 225.21
  A 0.31 0.31 0.0 0 0 95.28 224.82
  L 92.24 216.81
  A 0.31 0.31 0.0 0 0 92.13 216.67
  L 81.83 209.55
  A 0.31 0.31 0.0 0 0 81.35 209.83
  L 82.16 219.08
  A 0.31 0.31 0.0 0 0 82.34 219.34
  L 94.86 225.21
  Z
  M 82.93 220.98
  A 0.32 0.32 0.0 0 0 82.47 221.29
  L 83.35 230.63
  A 0.32 0.32 0.0 0 0 83.59 230.91
  L 98.14 234.37
  A 0.32 0.32 0.0 0 0 98.52 233.96
  L 96.45 228.06
  A 0.32 0.32 0.0 0 0 96.30 227.88
  L 82.93 220.98
  Z"
/>
<path fill="#191919" d="
  M 194.70 189.71
  C 188.33 198.43 180.65 202.34 170.02 203.89
  A 0.44 0.43 84.2 0 1 169.52 203.47
  Q 169.45 201.75 171.40 201.31
  C 175.17 200.44 179.02 199.94 182.32 197.96
  Q 188.18 194.46 193.00 189.56
  Q 193.45 189.10 193.91 189.06
  Q 194.22 189.03 194.49 189.10
  Q 195.04 189.25 194.70 189.71
  Z"
/>
<path fill="#191919" d="
  M 111.72 207.59
  A 0.13 0.13 0.0 0 1 111.82 207.43
  L 111.90 207.42
  A 6.62 1.51 78.3 0 1 114.72 213.59
  L 115.83 218.94
  A 6.62 1.51 78.3 0 1 115.69 225.73
  L 115.61 225.74
  A 0.13 0.13 0.0 0 1 115.46 225.64
  L 111.72 207.59
  Z"
/>
<path fill="#191919" d="
  M 272.04 269.77
  C 272.77 254.70 276.61 235.32 286.12 223.13
  A 0.50 0.49 57.3 0 1 286.99 223.32
  Q 287.05 223.55 286.82 223.96
  Q 274.11 247.07 273.87 271.51
  Q 273.66 292.76 272.28 302.00
  Q 270.73 312.42 264.98 320.99
  A 0.58 0.58 0.0 0 1 264.25 321.19
  Q 263.46 320.84 263.86 320.08
  Q 270.80 307.07 271.19 292.24
  Q 271.49 281.01 272.04 269.77
  Z"
/>
<path fill="#191919" d="
  M 335.50 311.36
  Q 334.98 312.74 334.20 313.41
  A 0.72 0.72 0.0 0 1 333.05 312.63
  C 342.12 285.72 342.22 259.34 335.76 232.07
  Q 334.69 227.56 332.90 223.57
  A 0.44 0.44 0.0 0 1 333.66 223.14
  Q 336.32 226.95 337.49 231.50
  C 343.92 256.71 344.69 286.63 335.50 311.36
  Z"
/>
<path fill="#191919" d="
  M 48.27 244.76
  C 47.45 241.14 45.17 227.43 48.49 224.92
  A 0.36 0.35 -15.4 0 1 49.06 225.24
  Q 47.89 234.89 49.16 244.54
  Q 49.23 245.09 48.68 245.08
  Q 48.53 245.08 48.42 245.02
  Q 48.31 244.95 48.27 244.76
  Z"
/>
<path fill="#191919" d="
  M 133.99 231.36
  C 127.12 229.58 122.23 231.55 116.57 234.70
  A 0.36 0.36 0.0 0 1 116.13 234.14
  C 121.48 228.46 129.21 227.90 136.46 229.78
  Q 137.14 229.96 136.70 230.50
  C 136.15 231.19 134.92 231.61 133.99 231.36
  Z"
/>
<path fill="#191919" d="
  M 124.76 234.35
  Q 129.10 232.92 136.76 235.25
  A 0.64 0.64 0.0 0 1 136.72 236.48
  Q 136.43 236.55 136.01 236.47
  Q 128.15 235.05 125.09 235.63
  Q 114.87 237.61 124.76 234.35
  Z"
/>
<path fill="#191919" d="
  M 135.54 243.15
  C 130.91 240.63 127.02 239.69 121.66 240.34
  A 0.60 0.60 0.0 0 1 121.39 239.17
  C 125.09 237.91 134.43 237.80 136.45 242.31
  A 0.65 0.65 0.0 0 1 135.54 243.15
  Z"
/>
<path fill="#191919" d="
  M 103.96 277.59
  Q 100.97 278.12 97.91 277.98
  A 0.34 0.31 66.2 0 1 97.73 277.90
  L 96.27 276.57
  Q 95.84 276.19 95.28 276.27
  L 72.72 279.70
  A 0.96 0.96 0.0 0 1 72.11 277.91
  Q 77.39 274.97 82.60 271.97
  C 86.85 269.51 90.78 268.89 95.47 268.34
  Q 96.00 268.28 96.11 267.76
  C 96.86 264.11 102.45 264.24 105.09 264.97
  Q 105.55 265.09 105.99 264.90
  Q 109.72 263.24 112.57 266.22
  Q 112.91 266.58 113.40 266.55
  L 116.64 266.34
  Q 117.11 266.31 117.25 265.86
  Q 119.43 259.25 119.15 252.26
  Q 119.12 251.41 119.75 251.14
  A 0.44 0.44 0.0 0 1 120.36 251.45
  Q 121.81 258.07 120.10 264.42
  C 119.28 267.48 119.60 269.74 119.51 272.75
  A 0.90 0.89 80.7 0 1 118.94 273.56
  Q 116.33 274.58 113.52 274.50
  Q 113.03 274.49 112.68 274.81
  Q 109.86 277.39 105.96 277.32
  Q 105.33 277.31 105.44 277.94
  Q 107.56 289.54 108.14 301.25
  Q 108.56 309.84 101.87 315.11
  A 0.56 0.56 0.0 0 1 100.97 314.75
  C 100.76 313.31 103.04 310.91 103.84 309.79
  C 106.18 306.52 106.24 303.27 105.95 299.50
  Q 105.11 288.76 104.50 278.01
  Q 104.47 277.50 103.96 277.59
  Z
  M 100.03 266.53
  A 2.19 2.19 0.0 0 0 98.03 268.74
  L 98.12 273.88
  A 2.19 2.19 0.0 0 0 100.59 276.02
  L 108.95 274.94
  A 2.19 2.19 0.0 0 0 110.86 272.68
  L 110.66 267.87
  A 2.19 2.19 0.0 0 0 108.28 265.78
  L 100.03 266.53
  Z"
/>
<path fill="#191919" d="
  M 195.53 295.78
  C 196.31 296.56 196.14 297.81 196.28 298.65
  Q 197.94 308.90 196.64 319.64
  A 0.89 0.87 -18.0 0 1 196.36 320.18
  Q 194.55 321.84 194.74 319.76
  Q 195.77 308.76 194.95 297.27
  Q 194.87 296.12 194.28 297.11
  Q 186.46 310.23 181.83 324.78
  A 0.66 0.66 0.0 0 1 180.55 324.59
  Q 180.52 322.98 181.16 321.02
  Q 186.73 303.97 197.12 289.41
  C 200.09 285.25 200.29 281.49 200.61 276.51
  Q 201.31 265.35 201.94 254.15
  A 0.55 0.55 0.0 0 1 202.84 253.76
  Q 203.22 254.07 203.25 254.75
  Q 203.71 266.63 202.43 278.45
  C 202.05 281.95 201.72 286.36 199.91 288.90
  Q 197.68 292.03 195.47 295.16
  Q 195.24 295.49 195.53 295.78
  Z"
/>
<path fill="#191919" d="
  M 310.98 269.11
  Q 306.56 280.59 303.58 297.75
  Q 301.33 310.69 294.31 321.42
  A 1.26 1.26 0.0 0 1 292.75 321.88
  Q 292.25 321.66 292.22 321.01
  Q 292.21 320.62 292.51 320.12
  Q 299.29 308.97 300.80 300.02
  C 303.70 282.71 307.57 265.64 316.23 254.89
  A 0.54 0.54 0.0 0 1 317.13 255.48
  Q 313.62 262.26 310.98 269.11
  Z"
/>
<path fill="#191919" d="
  M 193.56 285.31
  Q 193.19 286.82 192.08 286.23
  A 0.77 0.77 0.0 0 1 191.67 285.41
  Q 194.39 270.64 195.30 255.63
  Q 195.32 255.22 195.73 255.20
  Q 195.87 255.19 196.02 255.18
  A 0.30 0.30 0.0 0 1 196.33 255.46
  Q 197.18 270.61 193.56 285.31
  Z"
/>
<path fill="#191919" d="
  M 224.11 272.73
  C 220.25 271.68 217.72 260.09 217.47 256.67
  A 0.44 0.44 0.0 0 1 218.26 256.38
  Q 218.48 256.67 218.57 257.20
  Q 219.92 264.95 224.81 271.72
  A 0.65 0.65 0.0 0 1 224.11 272.73
  Z"
/>
<path fill="#14bef0" d="
  M 103.88 263.49
  A 0.18 0.18 0.0 0 1 103.65 263.59
  L 103.56 263.55
  A 2.03 1.21 -67.0 0 1 103.24 261.21
  L 103.63 260.29
  A 2.03 1.21 -67.0 0 1 105.54 258.89
  L 105.62 258.93
  A 0.18 0.18 0.0 0 1 105.72 259.17
  L 103.88 263.49
  Z"
/>
<path fill="#191919" d="
  M 161.32 271.43
  Q 160.95 271.57 160.68 271.46
  A 0.39 0.39 0.0 0 1 160.63 270.75
  Q 167.20 267.20 170.59 260.48
  Q 170.86 259.96 171.17 259.82
  Q 171.39 259.73 171.62 259.74
  Q 172.16 259.76 172.00 260.28
  Q 169.35 268.44 161.32 271.43
  Z"
/>
<path fill="#191919" d="
  M 312.43 269.86
  C 316.90 281.03 316.47 294.98 315.15 306.74
  Q 314.52 312.40 312.08 317.43
  A 0.70 0.70 0.0 0 1 310.80 317.39
  Q 310.59 316.87 310.85 316.04
  C 315.21 302.36 314.70 284.33 311.60 270.12
  A 0.44 0.43 -62.2 0 1 312.43 269.86
  Z"
/>
<path fill="#191919" d="
  M 122.47 337.86
  Q 122.24 338.52 121.68 338.58
  A 0.50 0.49 -89.5 0 1 121.14 338.03
  C 123.40 317.47 123.96 294.96 117.98 275.53
  Q 117.89 275.25 117.93 275.00
  Q 117.99 274.69 118.08 274.48
  A 0.46 0.46 0.0 0 1 118.93 274.49
  C 125.61 291.54 125.08 311.91 123.73 329.90
  C 123.52 332.63 123.41 335.23 122.47 337.86
  Z"
/>
<path fill="#191919" d="
  M 99.20 309.50
  Q 98.08 295.58 97.84 282.57
  Q 97.83 282.10 98.05 281.93
  Q 98.18 281.82 98.38 281.79
  Q 98.80 281.74 98.85 282.15
  Q 100.25 293.78 100.67 305.49
  Q 100.76 307.77 100.01 309.62
  A 0.42 0.42 0.0 0 1 99.20 309.50
  Z"
/>
<path fill="#191919" d="
  M 96.64 322.36
  Q 94.09 329.80 92.48 337.50
  Q 91.87 340.39 90.79 342.71
  A 0.72 0.72 0.0 0 1 89.43 342.27
  C 91.03 333.67 92.96 324.41 97.40 316.80
  A 0.72 0.72 0.0 0 1 98.71 317.35
  C 98.26 318.98 97.15 320.88 96.64 322.36
  Z"
/>
</svg>
