<?xml version="1.0" encoding="UTF-8" standalone="no"?>
<!DOCTYPE svg PUBLIC "-//W3C//DTD SVG 1.1//EN" "http://www.w3.org/Graphics/SVG/1.1/DTD/svg11.dtd">
<svg xmlns="http://www.w3.org/2000/svg" version="1.1" viewBox="0.00 0.00 400.00 400.00">
<g stroke-width="2.00" fill="none" stroke-linecap="butt">
<path stroke="#176c85" vector-effect="non-scaling-stroke" d="
  M 380.04 244.92
  L 373.44 233.62"
/>
<path stroke="#176c85" vector-effect="non-scaling-stroke" d="
  M 251.22 219.65
  L 240.77 228.37"
/>
<path stroke="#176c85" vector-effect="non-scaling-stroke" d="
  M 293.84 189.18
  C 288.57 190.98 278.15 196.99 278.71 203.51
  Q 279.03 207.19 282.76 208.72
  C 294.05 213.33 310.23 211.22 320.91 204.89
  C 326.81 201.39 335.13 193.17 324.52 188.02
  Q 317.96 184.83 310.13 185.48"
/>
<path stroke="#176c85" vector-effect="non-scaling-stroke" d="
  M 293.73 189.76
  C 289.08 191.57 277.57 197.83 283.05 204.73
  C 287.23 209.98 298.30 210.13 304.73 208.73
  Q 315.83 206.31 322.58 201.13
  C 326.63 198.02 327.92 192.58 323.43 189.15
  C 319.85 186.41 314.37 186.11 310.26 186.08"
/>
<path stroke="#176c85" vector-effect="non-scaling-stroke" d="
  M 134.88 48.86
  C 125.98 62.68 119.65 79.16 115.34 93.62
  Q 115.12 94.37 115.78 93.96
  C 135.72 81.64 159.80 82.17 180.49 92.88
  Q 181.07 93.18 180.93 92.54
  Q 177.06 74.34 169.90 57.16
  C 167.54 51.51 157.59 30.76 150.49 33.21
  C 144.30 35.33 138.34 43.49 134.88 48.86"
/>
<path stroke="#176c85" vector-effect="non-scaling-stroke" d="
  M 148.59 240.78
  C 127.22 242.48 141.60 295.83 144.95 307.54
  Q 145.39 309.06 145.56 307.49
  Q 146.49 299.11 147.56 290.33
  C 149.53 274.12 149.00 257.55 149.08 241.24
  A 0.46 0.45 87.7 0 0 148.59 240.78"
/>
<path stroke="#176c85" vector-effect="non-scaling-stroke" d="
  M 123.11 279.67
  Q 123.25 279.59 123.21 279.44
  L 115.23 244.76
  Q 115.11 244.26 114.74 244.62
  C 95.66 262.68 92.98 288.65 103.79 312.14
  Q 104.39 313.43 104.63 312.03
  Q 106.86 299.17 114.23 287.69
  Q 117.27 282.95 123.11 279.67"
/>
<path stroke="#176c85" vector-effect="non-scaling-stroke" d="
  M 168.24 280.16
  C 177.99 282.98 183.82 292.03 183.54 302.35
  C 183.46 305.59 185.03 307.82 186.96 310.08
  Q 187.28 310.46 187.48 310.00
  C 197.19 287.18 194.42 262.88 176.30 245.16
  Q 176.00 244.86 175.89 245.28
  L 167.28 278.48
  A 1.40 1.39 15.3 0 0 168.24 280.16"
/>
<path stroke="#176c85" vector-effect="non-scaling-stroke" d="
  M 131.75 154.40
  C 139.31 157.03 146.76 154.85 151.56 148.42
  Q 158.16 139.60 151.94 128.57"
/>
<path stroke="#176c85" vector-effect="non-scaling-stroke" d="
  M 139.03 120.75
  Q 127.69 120.70 122.42 130.43
  Q 119.15 136.47 121.43 143.15"
/>
<path stroke="#176c85" vector-effect="non-scaling-stroke" d="
  M 306.47 169.54
  Q 307.74 166.46 305.40 164.62
  A 0.96 0.94 -35.5 0 0 304.49 164.48
  Q 299.38 166.30 294.02 165.43
  A 1.83 1.82 2.2 0 0 291.91 167.38
  Q 292.12 170.08 294.11 172.33"
/>
<path stroke="#176c85" vector-effect="non-scaling-stroke" d="
  M 346.92 198.99
  Q 353.03 203.32 358.74 208.10
  Q 361.72 210.59 363.31 211.19
  C 370.32 213.87 375.32 206.57 378.20 201.42
  C 381.49 195.53 376.74 190.32 371.73 186.80"
/>
<path stroke="#176c85" vector-effect="non-scaling-stroke" d="
  M 361.67 179.55
  Q 354.82 175.42 346.59 173.99
  A 1.39 1.36 35.2 0 0 345.67 174.14
  Q 336.88 179.11 332.16 188.05
  Q 331.93 188.49 332.03 188.98
  Q 332.83 192.74 337.47 193.63"
/>
</g>
<path fill="#191919" d="
  M 151.49 283.78
  L 147.69 317.48
  Q 147.58 318.44 146.68 318.80
  Q 144.86 319.51 144.43 318.03
  Q 139.31 300.52 136.07 282.55
  Q 135.98 282.02 135.44 282.01
  C 131.88 281.97 127.17 281.44 124.08 282.83
  C 113.30 287.67 108.11 308.53 106.67 318.87
  A 1.59 1.58 34.6 0 1 103.71 319.41
  C 88.94 292.74 90.60 263.15 114.08 241.87
  Q 114.43 241.54 114.33 241.08
  Q 108.90 215.94 105.11 181.50
  Q 98.78 123.98 119.38 72.48
  C 125.56 57.04 132.47 43.61 144.02 32.80
  Q 147.37 29.66 152.07 29.66
  C 161.90 29.67 172.19 53.49 175.22 61.76
  Q 187.67 95.78 189.40 128.76
  Q 190.49 149.50 187.74 173.57
  C 185.14 196.32 181.47 219.02 176.53 241.29
  A 1.31 1.30 -62.8 0 0 176.93 242.55
  C 198.38 262.06 200.82 287.81 189.35 313.93
  Q 189.16 314.37 189.42 314.78
  L 193.44 321.16
  A 0.81 0.81 0.0 0 1 193.33 322.17
  L 193.02 322.50
  A 0.92 0.92 0.0 0 1 191.63 322.40
  L 187.78 317.20
  Q 187.47 316.78 186.95 316.83
  Q 180.88 317.40 174.88 316.42
  A 0.44 0.44 0.0 0 0 174.44 317.08
  L 177.01 321.22
  A 1.06 1.06 0.0 0 1 175.38 322.55
  Q 174.15 321.38 172.91 319.61
  Q 160.91 302.54 151.88 283.71
  Q 151.57 283.08 151.49 283.78
  Z
  M 134.88 48.86
  C 125.98 62.68 119.65 79.16 115.34 93.62
  Q 115.12 94.37 115.78 93.96
  C 135.72 81.64 159.80 82.17 180.49 92.88
  Q 181.07 93.18 180.93 92.54
  Q 177.06 74.34 169.90 57.16
  C 167.54 51.51 157.59 30.76 150.49 33.21
  C 144.30 35.33 138.34 43.49 134.88 48.86
  Z
  M 151.39 240.17
  L 151.71 270.74
  Q 151.74 274.15 152.20 270.77
  Q 153.39 261.90 154.28 251.74
  Q 154.83 245.43 157.07 240.29
  C 159.81 234.03 170.25 227.95 174.04 237.29
  Q 174.30 237.93 174.44 237.26
  Q 183.81 193.54 186.24 152.75
  Q 187.82 126.26 182.15 97.94
  Q 182.06 97.47 181.65 97.21
  C 161.83 85.11 134.37 83.42 114.83 97.31
  A 2.21 2.19 -10.8 0 0 114.00 98.52
  Q 104.21 135.15 107.26 173.00
  Q 111.61 227.03 126.43 279.17
  Q 126.60 279.75 127.21 279.75
  L 134.98 279.75
  Q 135.63 279.75 135.50 279.11
  C 133.65 269.88 132.62 253.50 137.57 245.12
  C 140.03 240.96 145.86 236.82 150.83 239.30
  Q 151.38 239.57 151.39 240.17
  Z
  M 160.60 238.67
  C 158.36 241.76 157.31 245.78 156.86 249.50
  Q 155.17 263.50 153.13 278.23
  Q 152.96 279.50 154.24 279.50
  L 159.94 279.50
  Q 160.37 279.50 160.47 279.07
  Q 164.33 263.75 165.54 248.01
  C 165.79 244.74 164.94 239.71 161.37 238.43
  Q 160.89 238.26 160.60 238.67
  Z
  M 148.59 240.78
  C 127.22 242.48 141.60 295.83 144.95 307.54
  Q 145.39 309.06 145.56 307.49
  Q 146.49 299.11 147.56 290.33
  C 149.53 274.12 149.00 257.55 149.08 241.24
  A 0.46 0.45 87.7 0 0 148.59 240.78
  Z
  M 123.11 279.67
  Q 123.25 279.59 123.21 279.44
  L 115.23 244.76
  Q 115.11 244.26 114.74 244.62
  C 95.66 262.68 92.98 288.65 103.79 312.14
  Q 104.39 313.43 104.63 312.03
  Q 106.86 299.17 114.23 287.69
  Q 117.27 282.95 123.11 279.67
  Z
  M 168.24 280.16
  C 177.99 282.98 183.82 292.03 183.54 302.35
  C 183.46 305.59 185.03 307.82 186.96 310.08
  Q 187.28 310.46 187.48 310.00
  C 197.19 287.18 194.42 262.88 176.30 245.16
  Q 176.00 244.86 175.89 245.28
  L 167.28 278.48
  A 1.40 1.39 15.3 0 0 168.24 280.16
  Z
  M 169.53 289.88
  L 165.24 282.55
  Q 164.92 282.00 164.29 282.00
  L 154.50 282.00
  Q 153.84 282.00 154.18 282.58
  L 158.69 290.25
  Q 158.98 290.73 159.54 290.71
  L 169.33 290.25
  Q 169.73 290.23 169.53 289.88
  Z
  M 169.62 284.66
  L 179.65 299.62
  A 0.30 0.29 25.5 0 0 180.19 299.43
  Q 179.17 288.98 169.95 284.29
  Q 169.08 283.84 169.62 284.66
  Z
  M 160.91 293.58
  A 0.17 0.17 0.0 0 0 160.75 293.83
  L 165.13 301.63
  Q 165.35 302.03 165.79 301.94
  Q 171.00 300.85 176.28 301.64
  A 0.42 0.42 0.0 0 0 176.69 301.00
  L 171.93 293.63
  A 0.89 0.88 69.4 0 0 171.06 293.23
  Q 166.00 294.01 160.91 293.58
  Z
  M 185.08 313.68
  L 179.39 305.24
  Q 179.04 304.73 178.43 304.70
  L 167.56 304.11
  Q 166.66 304.06 167.12 304.84
  L 172.28 313.57
  A 0.84 0.83 70.1 0 0 173.13 313.97
  Q 178.95 313.00 184.74 314.19
  Q 185.54 314.36 185.08 313.68
  Z"
/>
<path fill="#14bef0" d="
  M 115.34 93.62
  C 119.65 79.16 125.98 62.68 134.88 48.86
  C 138.34 43.49 144.30 35.33 150.49 33.21
  C 157.59 30.76 167.54 51.51 169.90 57.16
  Q 177.06 74.34 180.93 92.54
  Q 181.07 93.18 180.49 92.88
  C 159.80 82.17 135.72 81.64 115.78 93.96
  Q 115.12 94.37 115.34 93.62
  Z
  M 145.24 43.14
  Q 146.14 41.54 144.81 40.94
  A 1.40 1.40 0.0 0 0 143.17 41.31
  C 141.05 43.82 136.26 49.97 137.18 52.69
  A 0.98 0.97 -35.9 0 0 138.89 52.96
  Q 142.28 48.38 145.24 43.14
  Z
  M 127.93 79.83
  Q 131.32 69.87 135.10 60.06
  Q 135.67 58.59 135.11 57.61
  A 1.01 1.01 0.0 0 0 133.34 57.61
  Q 126.80 69.43 124.50 82.76
  A 1.05 1.05 0.0 0 0 126.47 83.41
  Q 127.22 81.90 127.93 79.83
  Z"
/>
<path fill="#14bef0" d="
  M 83.27 180.68
  Q 93.03 182.81 103.02 182.17
  A 1.14 1.14 0.0 0 1 104.20 183.60
  Q 103.90 184.71 102.64 184.60
  C 99.41 184.31 95.60 184.65 92.34 184.89
  Q 91.79 184.93 91.79 185.48
  L 91.43 315.73
  A 0.69 0.69 0.0 0 1 90.70 316.41
  Q 90.18 316.38 89.81 315.92
  Q 89.58 315.63 89.57 315.13
  Q 89.54 312.74 89.45 310.36
  A 0.73 0.71 19.6 0 0 89.19 309.83
  L 74.77 297.70
  Q 74.43 297.41 74.07 297.67
  L 57.67 309.61
  Q 57.28 309.89 57.24 310.37
  L 57.04 312.79
  A 0.78 0.78 0.0 0 1 55.86 313.39
  L 34.65 300.38
  Q 34.26 300.14 33.92 300.44
  L 12.83 319.11
  A 1.20 1.19 -20.8 0 1 10.84 318.22
  L 10.48 86.25
  A 1.77 1.76 85.9 0 1 11.99 84.50
  L 55.53 78.31
  A 1.94 1.92 -35.9 0 1 56.58 78.47
  Q 58.50 79.35 59.74 79.62
  Q 75.83 83.08 91.23 87.84
  A 1.50 1.48 9.6 0 1 92.28 89.30
  L 91.79 109.55
  Q 91.77 110.08 92.31 110.06
  L 98.46 109.72
  A 1.49 1.49 0.0 0 1 99.79 112.01
  C 86.53 132.66 88.49 156.89 101.23 177.53
  C 102.39 179.40 100.74 180.61 98.92 180.52
  Q 91.12 180.14 83.30 180.33
  A 0.18 0.18 0.0 0 0 83.27 180.68
  Z
  M 17.67 87.73
  L 33.46 97.73
  Q 33.91 98.01 34.31 97.65
  L 50.90 82.78
  Q 51.49 82.25 50.70 82.36
  L 17.81 87.07
  Q 16.84 87.21 17.67 87.73
  Z
  M 61.64 83.14
  L 76.36 96.17
  Q 76.78 96.55 77.26 96.24
  L 86.38 90.47
  Q 86.91 90.13 86.31 89.96
  L 61.71 83.02
  A 0.07 0.07 0.0 0 0 61.64 83.14
  Z
  M 53.84 111.36
  A 0.32 0.32 0.0 0 0 54.34 111.10
  L 54.46 83.92
  A 0.32 0.32 0.0 0 0 53.92 83.69
  L 37.17 99.45
  A 0.32 0.32 0.0 0 0 37.21 99.94
  L 53.84 111.36
  Z
  M 58.24 83.64
  A 0.30 0.30 0.0 0 0 57.73 83.86
  L 57.73 108.97
  A 0.30 0.30 0.0 0 0 58.20 109.22
  L 73.63 98.66
  A 0.30 0.30 0.0 0 0 73.67 98.19
  L 58.24 83.64
  Z
  M 14.17 116.44
  L 30.96 100.58
  Q 31.30 100.26 30.91 99.99
  L 14.25 88.75
  Q 13.75 88.41 13.75 89.01
  L 13.75 116.26
  Q 13.75 116.84 14.17 116.44
  Z
  M 89.31 107.70
  L 88.95 92.73
  Q 88.93 92.06 88.39 92.44
  L 79.80 98.44
  Q 79.35 98.75 79.74 99.13
  L 88.84 107.91
  Q 89.33 108.38 89.31 107.70
  Z
  M 61.27 111.54
  L 86.76 110.32
  Q 87.50 110.28 86.94 109.80
  L 76.91 101.10
  A 0.75 0.75 0.0 0 0 76.02 101.04
  L 61.04 110.80
  Q 59.79 111.61 61.27 111.54
  Z
  M 52.68 114.25
  A 0.33 0.33 0.0 0 0 52.63 113.72
  L 34.51 102.57
  A 0.33 0.33 0.0 0 0 34.12 102.60
  L 15.68 118.86
  A 0.33 0.33 0.0 0 0 15.72 119.39
  L 33.65 130.80
  A 0.33 0.33 0.0 0 0 34.05 130.76
  L 52.68 114.25
  Z
  M 94.73 112.95
  L 81.25 113.47
  Q 80.69 113.49 80.87 114.02
  L 87.68 133.74
  Q 87.98 134.61 88.12 133.70
  Q 89.75 123.00 95.14 113.64
  Q 95.55 112.92 94.73 112.95
  Z
  M 58.27 113.91
  Q 57.73 113.92 57.72 114.47
  L 57.65 140.71
  Q 57.65 141.27 57.97 140.81
  L 76.54 114.04
  Q 76.91 113.51 76.27 113.52
  L 58.27 113.91
  Z
  M 86.72 141.71
  A 0.33 0.33 0.0 0 0 86.72 141.51
  L 78.90 115.88
  A 0.33 0.33 0.0 0 0 78.30 115.79
  L 58.28 146.58
  A 0.33 0.33 0.0 0 0 58.28 146.94
  L 76.17 174.67
  A 0.33 0.33 0.0 0 0 76.77 174.59
  L 86.72 141.71
  Z
  M 53.95 144.31
  A 0.34 0.34 0.0 0 0 54.48 144.03
  L 54.48 116.84
  A 0.34 0.34 0.0 0 0 53.91 116.60
  L 37.27 132.47
  A 0.34 0.34 0.0 0 0 37.32 133.00
  L 53.95 144.31
  Z
  M 14.24 121.70
  A 0.31 0.31 0.0 0 0 13.76 121.96
  L 13.73 149.15
  A 0.31 0.31 0.0 0 0 14.25 149.37
  L 30.96 133.52
  A 0.31 0.31 0.0 0 0 30.92 133.04
  L 14.24 121.70
  Z
  M 52.60 147.22
  A 0.34 0.34 0.0 0 0 52.55 146.68
  L 34.47 135.58
  A 0.34 0.34 0.0 0 0 34.07 135.62
  L 15.63 151.89
  A 0.34 0.34 0.0 0 0 15.67 152.43
  L 33.66 163.81
  A 0.34 0.34 0.0 0 0 34.07 163.78
  L 52.60 147.22
  Z
  M 53.97 177.36
  A 0.34 0.34 0.0 0 0 54.50 177.07
  L 54.49 149.86
  A 0.34 0.34 0.0 0 0 53.92 149.62
  L 37.28 165.43
  A 0.34 0.34 0.0 0 0 37.33 165.96
  L 53.97 177.36
  Z
  M 78.54 176.99
  A 0.20 0.20 0.0 0 0 78.73 177.25
  L 96.74 177.26
  A 0.27 0.27 0.0 0 0 96.97 176.86
  C 91.98 168.20 89.86 160.29 87.93 150.55
  Q 87.74 149.58 87.43 150.52
  L 78.54 176.99
  Z
  M 57.61 177.46
  A 0.35 0.35 0.0 0 0 57.97 177.81
  L 74.32 177.43
  A 0.35 0.35 0.0 0 0 74.60 176.89
  L 58.32 153.18
  A 0.35 0.35 0.0 0 0 57.68 153.38
  L 57.61 177.46
  Z
  M 30.91 166.01
  L 14.09 154.63
  Q 13.76 154.40 13.75 154.80
  L 13.73 182.24
  Q 13.73 182.87 14.18 182.44
  L 30.96 166.63
  A 0.40 0.40 0.0 0 0 30.91 166.01
  Z
  M 52.53 180.04
  A 0.30 0.30 0.0 0 0 52.49 179.56
  L 34.55 168.24
  A 0.30 0.30 0.0 0 0 34.19 168.27
  L 15.33 184.88
  A 0.30 0.30 0.0 0 0 15.37 185.36
  L 33.58 196.72
  A 0.30 0.30 0.0 0 0 33.94 196.69
  L 52.53 180.04
  Z
  M 88.05 185.30
  A 0.33 0.33 0.0 0 0 87.90 184.71
  L 58.05 180.44
  A 0.33 0.33 0.0 0 0 57.79 181.02
  L 74.31 194.98
  A 0.33 0.33 0.0 0 0 74.72 195.00
  L 88.05 185.30
  Z
  M 53.98 210.35
  A 0.33 0.33 0.0 0 0 54.50 210.07
  L 54.50 182.91
  A 0.33 0.33 0.0 0 0 53.94 182.67
  L 37.31 198.45
  A 0.33 0.33 0.0 0 0 37.35 198.96
  L 53.98 210.35
  Z
  M 57.63 185.05
  L 57.51 208.24
  Q 57.51 208.86 57.98 208.47
  L 71.33 197.54
  Q 71.70 197.23 71.34 196.90
  L 58.06 184.87
  Q 57.64 184.48 57.63 185.05
  Z
  M 14.20 187.61
  A 0.32 0.32 0.0 0 0 13.70 187.88
  L 13.56 215.33
  A 0.32 0.32 0.0 0 0 14.10 215.57
  L 30.95 199.65
  A 0.32 0.32 0.0 0 0 30.91 199.16
  L 14.20 187.61
  Z
  M 88.63 208.28
  A 0.31 0.31 0.0 0 0 89.15 208.06
  L 89.42 188.01
  A 0.31 0.31 0.0 0 0 88.91 187.76
  L 77.39 197.19
  A 0.31 0.31 0.0 0 0 77.38 197.65
  L 88.63 208.28
  Z
  M 74.30 199.63
  L 58.46 211.50
  Q 58.11 211.76 58.44 212.05
  L 74.11 225.42
  A 0.73 0.72 -42.8 0 0 75.00 225.45
  L 88.18 215.71
  A 2.73 2.72 47.1 0 0 88.33 211.45
  L 74.54 199.64
  A 0.20 0.19 46.2 0 0 74.30 199.63
  Z
  M 52.55 212.99
  A 0.32 0.32 0.0 0 0 52.51 212.48
  L 34.49 201.22
  A 0.32 0.32 0.0 0 0 34.11 201.25
  L 15.67 217.69
  A 0.32 0.32 0.0 0 0 15.71 218.20
  L 33.71 229.63
  A 0.32 0.32 0.0 0 0 34.09 229.60
  L 52.55 212.99
  Z
  M 54.23 243.57
  A 0.32 0.32 0.0 0 0 54.73 243.30
  L 54.58 215.67
  A 0.32 0.32 0.0 0 0 54.04 215.44
  L 37.09 231.38
  A 0.32 0.32 0.0 0 0 37.13 231.87
  L 54.23 243.57
  Z
  M 58.06 215.24
  A 0.32 0.32 0.0 0 0 57.52 215.48
  L 57.49 238.91
  A 0.32 0.32 0.0 0 0 58.01 239.16
  L 71.39 228.18
  A 0.32 0.32 0.0 0 0 71.40 227.70
  L 58.06 215.24
  Z
  M 88.42 238.56
  A 0.34 0.34 0.0 0 0 88.99 238.31
  L 89.01 219.07
  A 0.34 0.34 0.0 0 0 88.46 218.81
  L 77.36 227.73
  A 0.34 0.34 0.0 0 0 77.34 228.25
  L 88.42 238.56
  Z
  M 14.09 220.34
  A 0.33 0.33 0.0 0 0 13.58 220.61
  L 13.49 248.36
  A 0.33 0.33 0.0 0 0 14.05 248.60
  L 31.04 232.47
  A 0.33 0.33 0.0 0 0 31.00 231.96
  L 14.09 220.34
  Z
  M 74.69 258.91
  L 88.58 248.94
  Q 88.99 248.65 88.99 248.14
  L 88.99 243.21
  Q 88.99 242.74 88.63 242.43
  L 74.70 230.66
  Q 74.34 230.35 73.97 230.63
  L 58.17 242.41
  A 1.87 1.87 0.0 0 0 58.07 245.34
  L 73.93 258.88
  A 0.62 0.62 0.0 0 0 74.69 258.91
  Z
  M 52.70 246.04
  A 0.30 0.30 0.0 0 0 52.66 245.56
  L 34.43 234.25
  A 0.30 0.30 0.0 0 0 34.07 234.28
  L 15.52 250.71
  A 0.30 0.30 0.0 0 0 15.56 251.18
  L 33.61 262.58
  A 0.30 0.30 0.0 0 0 33.97 262.55
  L 52.70 246.04
  Z
  M 54.73 248.62
  A 0.34 0.34 0.0 0 0 54.16 248.37
  L 37.13 264.47
  A 0.34 0.34 0.0 0 0 37.17 265.00
  L 54.24 276.58
  A 0.34 0.34 0.0 0 0 54.77 276.30
  L 54.73 248.62
  Z
  M 57.28 272.67
  A 0.30 0.30 0.0 0 0 57.77 272.90
  L 71.57 261.57
  A 0.30 0.30 0.0 0 0 71.58 261.12
  L 57.97 248.68
  A 0.30 0.30 0.0 0 0 57.46 248.90
  L 57.28 272.67
  Z
  M 88.83 272.51
  A 0.10 0.09 -68.0 0 0 88.99 272.44
  L 88.99 252.49
  Q 88.99 251.78 88.45 252.23
  L 77.55 261.16
  Q 77.13 261.51 77.53 261.89
  L 88.83 272.51
  Z
  M 14.05 253.56
  A 0.34 0.34 0.0 0 0 13.52 253.84
  L 13.35 281.42
  A 0.34 0.34 0.0 0 0 13.93 281.67
  L 31.02 265.52
  A 0.34 0.34 0.0 0 0 30.98 264.99
  L 14.05 253.56
  Z
  M 89.01 276.68
  A 0.99 0.99 0.0 0 0 88.66 275.92
  L 74.97 264.36
  A 0.99 0.99 0.0 0 0 73.74 264.32
  L 57.37 276.51
  A 0.99 0.99 0.0 0 0 57.32 278.06
  L 73.87 292.16
  A 0.99 0.99 0.0 0 0 75.10 292.20
  L 88.60 282.18
  A 0.99 0.99 0.0 0 0 89.00 281.38
  L 89.01 276.68
  Z
  M 52.65 278.99
  A 0.33 0.33 0.0 0 0 52.60 278.46
  L 34.45 267.31
  A 0.33 0.33 0.0 0 0 34.06 267.34
  L 15.51 283.72
  A 0.33 0.33 0.0 0 0 15.56 284.24
  L 33.70 295.47
  A 0.33 0.33 0.0 0 0 34.09 295.44
  L 52.65 278.99
  Z
  M 54.50 309.76
  A 0.31 0.31 0.0 0 0 54.99 309.50
  L 54.83 281.26
  A 0.31 0.31 0.0 0 0 54.31 281.04
  L 37.16 297.49
  A 0.31 0.31 0.0 0 0 37.20 297.97
  L 54.50 309.76
  Z
  M 57.85 282.17
  A 0.33 0.33 0.0 0 0 57.30 282.41
  L 57.14 306.18
  A 0.33 0.33 0.0 0 0 57.68 306.43
  L 71.39 295.19
  A 0.33 0.33 0.0 0 0 71.40 294.69
  L 57.85 282.17
  Z
  M 89.12 285.93
  A 0.31 0.31 0.0 0 0 88.61 285.69
  L 77.38 294.81
  A 0.31 0.31 0.0 0 0 77.36 295.27
  L 88.79 305.90
  A 0.31 0.31 0.0 0 0 89.31 305.67
  L 89.12 285.93
  Z
  M 13.33 286.41
  L 13.18 314.70
  Q 13.17 315.22 13.55 314.86
  L 30.84 298.40
  Q 31.18 298.08 30.80 297.82
  L 13.86 286.13
  A 0.34 0.34 0.0 0 0 13.33 286.41
  Z"
/>
<rect fill="#191919" x="-0.70" y="-12.57" transform="translate(147.02,103.79) rotate(10.0)" width="1.40" height="25.14" rx="0.67"/>
<path fill="#191919" d="
  M 158.12 138.73
  A 20.44 20.44 0.0 0 1 137.68 159.17
  A 20.44 20.44 0.0 0 1 117.24 138.73
  A 20.44 20.44 0.0 0 1 137.68 118.29
  A 20.44 20.44 0.0 0 1 158.12 138.73
  Z
  M 121.43 143.15
  Q 123.68 150.87 131.75 154.40
  C 139.31 157.03 146.76 154.85 151.56 148.42
  Q 158.16 139.60 151.94 128.57
  Q 146.72 122.12 139.03 120.75
  Q 127.69 120.70 122.42 130.43
  Q 119.15 136.47 121.43 143.15
  Z"
/>
<path fill="#191919" d="
  M 332.76 144.12
  Q 335.62 143.63 338.49 143.19
  Q 340.18 142.92 340.79 144.23
  A 0.98 0.97 69.0 0 1 340.20 145.57
  L 335.12 147.16
  A 0.50 0.49 -15.4 0 0 334.79 147.74
  C 335.17 149.42 335.79 150.76 335.32 152.46
  Q 332.71 161.93 322.78 159.34
  Q 322.23 159.20 322.19 159.76
  Q 321.80 165.02 316.96 167.03
  Q 316.45 167.24 316.43 167.79
  Q 316.09 176.94 308.82 182.35
  Q 308.37 182.68 308.41 183.25
  L 309.21 193.68
  Q 309.25 194.12 309.69 194.16
  L 317.63 194.97
  A 0.76 0.75 -80.5 0 1 318.28 195.89
  L 318.11 196.63
  A 0.58 0.58 0.0 0 1 317.52 197.08
  L 307.52 196.82
  A 1.14 1.13 -2.3 0 1 306.41 195.80
  L 305.05 181.99
  A 1.45 1.43 70.4 0 1 305.68 180.64
  Q 313.46 175.31 313.35 165.69
  A 0.92 0.90 -12.0 0 1 313.91 164.84
  C 317.59 163.26 321.39 160.54 318.44 156.14
  C 317.53 154.77 316.07 154.26 314.60 153.48
  A 0.78 0.78 0.0 0 1 314.19 152.73
  L 314.70 146.86
  A 0.51 0.50 -79.1 0 0 314.35 146.34
  L 309.79 144.87
  A 0.74 0.73 -53.7 0 0 309.12 144.98
  L 307.44 146.28
  Q 306.98 146.64 307.43 146.99
  C 309.55 148.64 309.38 151.53 306.84 152.51
  Q 306.39 152.68 305.93 152.54
  C 303.30 151.73 302.85 149.01 304.47 146.97
  Q 304.87 146.47 304.23 146.42
  Q 299.13 146.04 295.66 142.37
  Q 295.31 141.99 294.79 141.99
  Q 291.27 141.97 288.76 144.30
  A 1.09 1.08 76.4 0 1 286.98 143.21
  Q 288.02 139.47 291.86 139.00
  A 0.39 0.38 70.5 0 0 292.14 138.41
  L 290.04 135.13
  Q 289.67 134.54 289.29 135.13
  Q 287.47 137.95 286.24 140.97
  C 284.61 144.99 285.20 149.27 285.47 153.58
  Q 285.50 154.12 285.00 154.29
  Q 280.84 155.74 280.92 160.00
  C 280.96 162.63 284.37 163.42 286.32 164.24
  A 0.82 0.81 11.4 0 1 286.82 164.99
  C 286.85 173.26 289.08 180.26 297.26 183.20
  A 0.96 0.95 -82.3 0 1 297.88 184.02
  L 298.81 197.03
  A 1.42 1.42 0.0 0 1 297.66 198.53
  Q 293.75 199.26 289.93 201.07
  Q 288.29 201.84 288.38 199.78
  A 0.85 0.85 0.0 0 1 288.85 199.07
  L 295.58 195.90
  A 0.51 0.51 0.0 0 0 295.88 195.38
  L 294.90 186.22
  Q 294.85 185.80 294.45 185.65
  C 286.86 182.83 283.99 174.74 283.65 167.20
  A 0.69 0.68 5.6 0 0 283.12 166.56
  C 275.69 164.77 276.40 155.71 282.22 152.48
  A 0.88 0.87 -13.8 0 0 282.66 151.76
  Q 282.89 146.84 282.83 142.01
  C 282.67 129.87 290.07 119.66 302.33 118.34
  Q 313.00 117.19 320.25 127.12
  Q 320.56 127.54 321.07 127.45
  Q 326.97 126.47 330.33 131.22
  Q 330.68 131.71 331.07 131.25
  L 333.98 127.78
  A 1.16 1.16 0.0 0 1 335.91 129.05
  L 332.79 135.25
  A 1.11 1.08 -41.0 0 0 332.72 136.09
  Q 333.95 139.97 332.42 143.69
  Q 332.20 144.21 332.76 144.12
  Z
  M 312.68 125.82
  A 0.75 0.75 0.0 0 0 313.53 124.72
  Q 311.70 121.61 308.01 122.40
  A 1.05 1.05 0.0 0 0 307.94 124.44
  L 312.68 125.82
  Z
  M 294.49 128.92
  C 297.59 127.01 300.72 125.89 304.13 124.70
  A 1.10 1.09 -52.8 0 0 303.84 122.57
  Q 297.10 122.16 292.81 127.23
  A 1.36 1.36 0.0 0 0 292.56 128.58
  Q 293.01 129.83 294.49 128.92
  Z"
/>
<path fill="#14bef0" d="
  M 139.03 120.75
  L 121.43 143.15
  Q 119.15 136.47 122.42 130.43
  Q 127.69 120.70 139.03 120.75
  Z"
/>
<path fill="#14bef0" d="
  M 151.94 128.57
  Q 158.16 139.60 151.56 148.42
  C 146.76 154.85 139.31 157.03 131.75 154.40
  L 151.94 128.57
  Z"
/>
<ellipse fill="#191919" cx="0.00" cy="0.00" transform="translate(297.98,152.17) rotate(89.7)" rx="6.97" ry="1.72"/>
<circle fill="#191919" cx="292.47" cy="150.49" r="3.31"/>
<path fill="#191919" d="
  M 145.80 195.50
  C 156.55 195.28 168.51 195.67 178.47 200.16
  Q 178.91 200.35 178.58 200.71
  Q 178.38 200.93 178.12 200.84
  Q 161.88 195.72 144.42 197.34
  A 0.75 0.74 -1.7 0 1 143.61 196.58
  L 144.44 160.72
  A 0.38 0.38 0.0 0 1 144.88 160.35
  Q 145.57 160.46 145.48 161.17
  Q 145.40 161.70 145.41 161.84
  Q 145.91 178.40 145.26 194.95
  Q 145.24 195.51 145.80 195.50
  Z"
/>
<path fill="#191919" d="
  M 307.24 174.49
  C 297.86 184.42 284.54 168.41 291.18 163.62
  Q 292.46 162.69 296.10 162.58
  Q 299.38 162.49 302.59 161.73
  C 311.57 159.59 311.52 169.96 307.24 174.49
  Z
  M 294.11 172.33
  Q 301.51 178.55 306.47 169.54
  Q 307.74 166.46 305.40 164.62
  A 0.96 0.94 -35.5 0 0 304.49 164.48
  Q 299.38 166.30 294.02 165.43
  A 1.83 1.82 2.2 0 0 291.91 167.38
  Q 292.12 170.08 294.11 172.33
  Z"
/>
<path fill="#14bef0" d="
  M 306.47 169.54
  C 302.44 166.13 297.05 168.73 294.11 172.33
  Q 292.12 170.08 291.91 167.38
  A 1.83 1.82 2.2 0 1 294.02 165.43
  Q 299.38 166.30 304.49 164.48
  A 0.96 0.94 -35.5 0 1 305.40 164.62
  Q 307.74 166.46 306.47 169.54
  Z"
/>
<path fill="#191919" d="
  M 380.04 244.92
  L 373.44 233.62
  Q 358.73 213.36 335.17 204.62
  C 333.24 203.91 332.16 203.76 332.28 201.15
  Q 332.46 197.29 330.56 200.51
  C 324.20 211.27 302.59 215.21 291.74 214.47
  Q 286.80 214.13 281.10 211.20
  Q 280.69 210.99 280.79 211.44
  L 282.38 218.19
  A 1.01 1.01 0.0 0 1 280.72 219.18
  C 277.95 216.71 276.56 208.70 275.91 205.08
  Q 275.81 204.50 275.26 204.70
  Q 261.74 209.62 251.22 219.65
  L 240.77 228.37
  C 231.51 235.03 224.49 239.97 212.33 238.67
  Q 211.85 238.62 211.69 239.07
  Q 209.47 245.13 211.45 250.57
  C 215.65 262.06 232.20 262.56 241.74 260.69
  Q 252.56 258.57 262.90 254.72
  Q 263.72 254.41 263.78 253.53
  Q 264.38 243.45 267.80 233.95
  A 0.68 0.68 0.0 0 1 268.59 233.51
  L 269.00 233.60
  A 0.92 0.92 0.0 0 1 269.67 234.77
  C 267.04 243.30 265.27 251.95 267.01 260.80
  Q 267.71 264.33 271.93 274.41
  C 275.01 281.74 278.05 289.07 279.49 297.02
  C 281.05 305.57 280.95 312.03 288.88 317.45
  C 304.33 328.01 326.65 330.09 344.00 325.27
  C 351.62 323.16 359.47 315.64 360.94 307.48
  A 0.93 0.93 0.0 0 1 362.04 306.73
  Q 363.50 307.02 363.14 308.79
  Q 362.55 311.76 361.17 314.47
  Q 360.92 314.96 361.36 315.29
  C 371.66 322.89 371.09 346.37 370.88 357.90
  A 0.93 0.93 0.0 0 1 369.07 358.16
  Q 368.75 357.12 368.62 355.74
  Q 367.60 344.23 366.18 332.76
  C 365.57 327.83 364.11 320.47 360.13 317.06
  Q 359.69 316.68 359.32 317.14
  C 347.66 331.92 327.08 332.46 310.16 329.52
  Q 297.05 327.24 286.31 319.54
  A 1.40 1.40 0.0 0 0 284.24 320.06
  C 278.55 331.52 277.96 345.43 276.93 357.82
  A 0.96 0.95 1.7 0 1 276.00 358.69
  Q 274.60 358.72 274.59 357.25
  Q 274.54 346.66 276.48 333.76
  Q 277.87 324.51 282.98 317.77
  Q 283.30 317.36 282.95 316.97
  C 276.40 309.72 277.56 299.80 274.74 291.00
  C 271.07 279.56 265.28 269.24 263.68 257.26
  Q 263.60 256.65 263.05 256.90
  C 248.12 263.50 229.43 268.72 214.57 259.72
  C 206.55 254.86 205.90 243.92 209.22 236.09
  Q 209.80 234.73 211.25 235.04
  C 221.27 237.25 229.66 233.04 237.18 226.93
  C 249.09 217.24 260.03 207.22 275.27 202.34
  Q 275.77 202.18 275.88 201.68
  C 277.65 193.90 286.27 188.88 293.25 186.80
  A 0.98 0.98 0.0 0 1 294.32 187.15
  Q 295.03 188.11 293.84 189.18
  C 288.57 190.98 278.15 196.99 278.71 203.51
  Q 279.03 207.19 282.76 208.72
  C 294.05 213.33 310.23 211.22 320.91 204.89
  C 326.81 201.39 335.13 193.17 324.52 188.02
  Q 317.96 184.83 310.13 185.48
  Q 309.54 185.05 309.47 184.78
  Q 309.14 183.67 310.29 183.52
  Q 320.22 182.20 328.84 187.04
  Q 329.28 187.29 329.54 186.85
  C 336.99 174.03 348.38 165.65 363.24 168.90
  C 378.02 172.14 388.68 184.20 388.66 199.72
  C 388.64 209.50 382.73 219.80 376.67 227.33
  Q 376.35 227.72 375.90 227.49
  Q 375.09 227.06 375.02 226.34
  Q 374.98 225.85 375.46 225.17
  C 384.75 212.11 391.10 195.96 379.27 182.25
  C 372.68 174.62 361.98 169.65 351.71 172.19
  A 0.29 0.29 0.0 0 0 351.72 172.75
  C 362.29 175.14 371.13 181.51 378.89 189.10
  C 385.85 195.89 381.49 203.78 376.33 209.66
  C 369.63 217.28 363.09 216.02 356.16 210.01
  Q 346.31 201.46 334.47 195.78
  Q 333.73 195.43 333.85 196.24
  L 334.62 201.21
  Q 334.70 201.70 335.17 201.87
  C 364.21 212.10 387.90 237.47 389.50 268.97
  Q 390.03 279.37 384.87 289.42
  C 373.66 311.22 349.50 307.79 331.52 297.67
  Q 331.02 297.39 331.01 296.82
  Q 331.01 296.66 331.03 296.50
  A 1.08 1.08 0.0 0 1 332.62 295.67
  C 342.96 301.29 359.62 305.91 370.75 299.97
  C 390.44 289.48 388.37 261.80 380.04 244.92
  Z
  M 337.47 193.63
  L 346.92 198.99
  Q 353.03 203.32 358.74 208.10
  Q 361.72 210.59 363.31 211.19
  C 370.32 213.87 375.32 206.57 378.20 201.42
  C 381.49 195.53 376.74 190.32 371.73 186.80
  L 361.67 179.55
  Q 354.82 175.42 346.59 173.99
  A 1.39 1.36 35.2 0 0 345.67 174.14
  Q 336.88 179.11 332.16 188.05
  Q 331.93 188.49 332.03 188.98
  Q 332.83 192.74 337.47 193.63
  Z"
/>
<path fill="#14bef0" d="
  M 361.67 179.55
  Q 348.78 185.12 337.47 193.63
  Q 332.83 192.74 332.03 188.98
  Q 331.93 188.49 332.16 188.05
  Q 336.88 179.11 345.67 174.14
  A 1.39 1.36 35.2 0 1 346.59 173.99
  Q 354.82 175.42 361.67 179.55
  Z"
/>
<path fill="#14bef0" d="
  M 293.84 189.18
  Q 293.46 188.95 293.73 189.76
  C 289.08 191.57 277.57 197.83 283.05 204.73
  C 287.23 209.98 298.30 210.13 304.73 208.73
  Q 315.83 206.31 322.58 201.13
  C 326.63 198.02 327.92 192.58 323.43 189.15
  C 319.85 186.41 314.37 186.11 310.26 186.08
  Q 310.31 185.66 310.13 185.48
  Q 317.96 184.83 324.52 188.02
  C 335.13 193.17 326.81 201.39 320.91 204.89
  C 310.23 211.22 294.05 213.33 282.76 208.72
  Q 279.03 207.19 278.71 203.51
  C 278.15 196.99 288.57 190.98 293.84 189.18
  Z"
/>
<path fill="#191919" d="
  M 310.26 186.08
  C 314.37 186.11 319.85 186.41 323.43 189.15
  C 327.92 192.58 326.63 198.02 322.58 201.13
  Q 315.83 206.31 304.73 208.73
  C 298.30 210.13 287.23 209.98 283.05 204.73
  C 277.57 197.83 289.08 191.57 293.73 189.76
  Q 294.57 190.30 294.76 191.07
  A 0.69 0.69 0.0 0 1 294.39 191.85
  C 290.70 193.58 281.63 198.75 285.83 203.40
  C 290.68 208.76 307.89 205.14 313.77 202.81
  C 317.03 201.52 324.92 196.52 322.96 192.72
  C 321.20 189.33 313.59 188.37 310.25 188.56
  A 0.80 0.79 -14.5 0 1 309.51 188.13
  Q 308.93 186.99 310.26 186.08
  Z"
/>
<path fill="#14bef0" d="
  M 371.73 186.80
  C 376.74 190.32 381.49 195.53 378.20 201.42
  C 375.32 206.57 370.32 213.87 363.31 211.19
  Q 361.72 210.59 358.74 208.10
  Q 353.03 203.32 346.92 198.99
  Q 358.91 191.81 371.73 186.80
  Z"
/>
<path fill="#191919" d="
  M 130.23 199.85
  Q 131.19 221.59 134.21 243.14
  Q 134.26 243.53 134.10 243.79
  Q 133.87 244.16 133.50 244.21
  A 0.35 0.34 80.5 0 1 133.11 243.93
  Q 129.43 221.63 128.59 199.04
  Q 128.56 197.97 129.61 197.80
  L 141.58 195.87
  A 0.39 0.39 0.0 0 1 142.03 196.32
  Q 141.99 196.54 141.94 196.77
  Q 141.90 197.00 141.67 197.01
  Q 136.09 197.44 130.75 199.12
  Q 130.21 199.29 130.23 199.85
  Z"
/>
<path fill="#191919" d="
  M 293.67 222.80
  Q 292.49 221.17 293.12 219.82
  A 0.93 0.92 40.6 0 1 294.73 219.70
  C 297.11 223.29 297.86 225.34 296.54 229.80
  C 293.87 238.89 291.29 251.01 294.12 260.27
  A 1.06 1.05 23.1 0 1 292.17 261.05
  C 287.51 251.88 290.59 237.09 294.00 227.96
  C 294.62 226.30 294.61 224.10 293.67 222.80
  Z"
/>
<path fill="#14bef0" d="
  M 251.22 219.65
  L 251.52 229.15
  Q 251.54 229.75 251.03 230.07
  L 242.69 235.40
  A 1.41 1.40 -15.1 0 1 240.53 234.16
  L 240.77 228.37
  L 251.22 219.65
  Z"
/>
<path fill="#191919" d="
  M 202.42 234.12
  L 200.32 228.38
  A 0.84 0.84 0.0 0 1 201.05 227.26
  Q 202.32 227.17 202.91 228.30
  C 204.03 230.43 205.40 232.46 206.32 234.67
  Q 206.52 235.17 206.14 235.54
  Q 202.54 239.10 205.27 243.16
  Q 205.53 243.55 205.53 243.88
  Q 205.52 245.18 203.94 244.86
  A 1.00 0.99 -16.8 0 1 203.47 244.61
  Q 199.04 240.35 202.34 234.92
  Q 202.58 234.54 202.42 234.12
  Z"
/>
<ellipse fill="#191919" cx="0.00" cy="0.00" transform="translate(195.96,232.24) rotate(36.8)" rx="5.81" ry="1.75"/>
<ellipse fill="#191919" cx="0.00" cy="0.00" transform="translate(193.33,237.09) rotate(41.0)" rx="4.88" ry="1.70"/>
<path fill="#14bef0" d="
  M 373.44 233.62
  L 380.04 244.92
  L 366.88 249.86
  Q 366.31 250.07 365.98 249.57
  L 360.07 240.75
  A 1.27 1.27 0.0 0 1 360.64 238.87
  L 373.44 233.62
  Z"
/>
<path fill="#191919" d="
  M 198.69 245.71
  A 0.15 0.15 0.0 0 1 198.72 245.92
  L 198.70 245.95
  A 5.16 3.20 38.2 0 1 192.67 245.27
  L 190.62 243.66
  A 5.16 3.20 38.2 0 1 188.55 237.96
  L 188.57 237.93
  A 0.15 0.15 0.0 0 1 188.78 237.91
  L 198.69 245.71
  Z"
/>
<path fill="#14bef0" d="
  M 144.95 307.54
  C 141.60 295.83 127.22 242.48 148.59 240.78
  A 0.46 0.45 87.7 0 1 149.08 241.24
  C 149.00 257.55 149.53 274.12 147.56 290.33
  Q 146.49 299.11 145.56 307.49
  Q 145.39 309.06 144.95 307.54
  Z"
/>
<path fill="#14bef0" d="
  M 123.11 279.67
  Q 117.27 282.95 114.23 287.69
  Q 106.86 299.17 104.63 312.03
  Q 104.39 313.43 103.79 312.14
  C 92.98 288.65 95.66 262.68 114.74 244.62
  Q 115.11 244.26 115.23 244.76
  L 123.21 279.44
  Q 123.25 279.59 123.11 279.67
  Z"
/>
<path fill="#14bef0" d="
  M 183.54 302.35
  C 183.82 292.03 177.99 282.98 168.24 280.16
  A 1.40 1.39 15.3 0 1 167.28 278.48
  L 175.89 245.28
  Q 176.00 244.86 176.30 245.16
  C 194.42 262.88 197.19 287.18 187.48 310.00
  Q 187.28 310.46 186.96 310.08
  C 185.03 307.82 183.46 305.59 183.54 302.35
  Z"
/>
<path fill="#191919" d="
  M 208.52 257.40
  C 200.99 259.01 192.10 252.04 188.11 246.35
  A 0.98 0.97 -87.6 0 1 189.53 245.04
  C 194.63 249.28 201.50 254.69 208.37 255.20
  A 1.11 1.11 0.0 0 1 208.52 257.40
  Z"
/>
<path fill="#191919" d="
  M 360.36 252.85
  Q 355.77 252.49 351.19 252.89
  C 341.93 253.71 334.06 246.38 324.46 250.09
  Q 320.00 251.81 316.78 255.68
  A 1.46 1.11 -3.7 0 1 316.55 255.88
  Q 315.22 256.72 314.62 255.72
  Q 314.37 255.30 314.63 254.90
  Q 319.61 247.33 327.94 245.96
  C 333.47 245.04 340.92 247.64 346.72 249.07
  C 351.30 250.21 356.28 249.23 361.10 249.84
  Q 363.37 250.13 364.08 252.21
  A 1.33 1.30 -46.3 0 1 364.09 253.06
  C 361.29 261.57 349.93 260.10 343.19 259.07
  A 0.74 0.73 -87.1 0 1 342.57 258.38
  Q 342.51 257.00 343.99 257.12
  Q 351.29 257.71 357.00 256.35
  Q 359.28 255.81 360.68 253.46
  Q 361.00 252.90 360.36 252.85
  Z"
/>
<path fill="#191919" d="
  M 300.59 299.43
  Q 301.60 295.48 300.00 290.73
  C 296.70 280.93 293.03 272.53 297.14 264.23
  Q 301.55 255.34 311.77 256.73
  A 0.66 0.65 -88.4 0 1 312.33 257.33
  L 312.38 258.25
  Q 312.43 259.03 311.65 258.95
  C 302.32 257.97 297.69 266.09 298.53 274.24
  C 299.20 280.81 307.60 295.75 302.72 301.27
  C 298.63 305.87 291.43 299.14 289.49 295.91
  A 0.74 0.74 0.0 0 1 289.61 294.99
  L 290.26 294.38
  A 0.60 0.59 -40.7 0 1 291.14 294.44
  Q 294.39 298.61 299.51 300.05
  A 0.87 0.86 -74.8 0 0 300.59 299.43
  Z"
/>
<path fill="#191919" d="
  M 340.32 277.25
  L 338.79 261.61
  Q 338.75 261.16 339.14 260.94
  Q 339.80 260.59 340.31 260.90
  Q 340.69 261.13 340.88 261.81
  C 342.19 266.45 345.58 280.54 342.17 284.26
  A 1.41 1.41 0.0 0 1 339.88 283.97
  L 332.67 270.44
  A 1.01 1.01 0.0 0 1 332.70 269.44
  Q 333.20 268.62 334.01 268.85
  Q 334.42 268.97 334.75 269.48
  Q 337.32 273.42 339.81 277.42
  Q 340.43 278.41 340.32 277.25
  Z"
/>
<path fill="#191919" d="
  M 335.28 263.69
  C 330.66 267.38 323.30 268.57 318.21 264.80
  A 1.01 1.01 0.0 0 1 319.05 263.01
  Q 326.95 264.96 334.42 261.63
  A 0.96 0.95 -31.8 0 1 335.54 261.89
  C 335.99 262.44 335.84 263.25 335.28 263.69
  Z"
/>
<path fill="#191919" d="
  M 330.35 286.23
  Q 330.29 282.46 329.39 278.77
  A 1.02 1.02 0.0 0 1 331.27 278.04
  C 333.00 281.22 335.50 288.09 331.28 290.46
  A 1.13 1.11 -47.9 0 1 330.28 290.52
  C 326.31 288.88 322.40 282.43 321.59 278.02
  A 0.97 0.96 -67.7 0 1 323.33 277.29
  L 329.67 286.45
  Q 330.37 287.46 330.35 286.23
  Z"
/>
<path fill="#191919" d="
  M 317.83 294.25
  C 320.00 292.01 319.39 286.64 319.03 283.83
  A 0.60 0.60 0.0 0 1 319.45 283.17
  Q 320.88 282.69 321.31 283.97
  C 323.15 289.45 322.96 302.61 312.85 295.80
  Q 307.12 291.94 305.45 285.30
  A 1.02 1.01 24.6 0 1 307.34 284.60
  C 309.27 288.40 312.84 292.70 316.82 294.44
  A 0.90 0.89 -55.5 0 0 317.83 294.25
  Z"
/>
<path fill="#191919" d="
  M 303.90 319.48
  C 304.13 320.76 305.24 321.92 305.12 323.16
  A 0.92 0.91 -66.9 0 1 303.61 323.77
  C 298.61 319.45 300.35 310.66 300.99 305.04
  A 1.02 1.02 0.0 0 1 302.99 304.88
  C 304.35 309.79 303.01 314.56 303.90 319.48
  Z"
/>
<path fill="#14bef0" d="
  M 216.09 326.49
  L 215.10 367.01
  A 2.52 2.52 0.0 0 1 212.65 369.47
  Q 195.21 370.00 177.50 370.48
  Q 176.42 370.51 175.85 369.23
  A 0.87 0.85 -12.4 0 0 175.05 368.73
  Q 139.06 369.38 103.10 367.71
  Q 102.58 367.69 102.20 368.05
  L 100.68 369.48
  A 1.08 1.08 0.0 0 1 99.09 368.02
  Q 115.92 347.02 134.03 327.13
  Q 134.58 326.53 133.76 326.52
  L 13.98 326.17
  Q 13.38 326.17 13.38 326.77
  L 13.38 368.48
  A 1.18 1.17 -10.0 0 1 12.60 369.58
  Q 11.09 370.12 11.07 368.50
  Q 10.85 346.38 10.86 324.57
  A 1.25 1.25 0.0 0 1 12.11 323.32
  C 57.94 323.12 103.83 323.51 149.74 323.43
  Q 208.46 323.33 267.13 324.15
  Q 269.43 324.18 269.47 326.48
  L 270.24 365.23
  A 2.72 2.71 -0.6 0 1 267.52 368.00
  L 238.00 368.00
  A 2.26 2.25 -0.0 0 1 235.74 365.75
  L 235.74 326.22
  Q 235.74 325.69 235.22 325.70
  L 216.52 326.06
  Q 216.10 326.07 216.09 326.49
  Z
  M 132.98 332.25
  A 0.35 0.35 0.0 0 0 133.25 332.82
  L 203.93 333.68
  A 0.35 0.35 0.0 0 0 204.20 333.56
  L 210.29 326.55
  A 0.35 0.35 0.0 0 0 210.03 325.97
  L 137.79 326.33
  A 0.35 0.35 0.0 0 0 137.52 326.46
  L 132.98 332.25
  Z
  M 201.31 336.77
  L 130.70 335.49
  A 0.51 0.50 20.3 0 0 130.32 335.66
  L 124.41 342.76
  Q 123.98 343.27 124.65 343.28
  L 194.85 344.32
  A 0.74 0.73 -68.7 0 0 195.43 344.06
  L 201.45 337.07
  Q 201.70 336.77 201.31 336.77
  Z
  M 115.15 354.28
  L 185.49 355.30
  Q 185.97 355.31 186.28 354.94
  L 192.70 347.29
  Q 192.96 346.96 192.54 346.96
  L 122.09 345.98
  Q 121.54 345.97 121.19 346.39
  L 114.93 353.80
  Q 114.53 354.28 115.15 354.28
  Z
  M 105.57 365.58
  C 129.42 365.25 152.95 365.58 176.40 366.56
  Q 176.90 366.58 177.21 366.19
  L 183.50 358.36
  Q 183.78 358.01 183.33 358.00
  L 112.61 356.97
  Q 112.16 356.96 111.86 357.30
  L 105.17 364.67
  Q 104.33 365.59 105.57 365.58
  Z"
/>
</svg>
