<?xml version="1.0" encoding="UTF-8" standalone="no"?>
<!DOCTYPE svg PUBLIC "-//W3C//DTD SVG 1.1//EN" "http://www.w3.org/Graphics/SVG/1.1/DTD/svg11.dtd">
<svg xmlns="http://www.w3.org/2000/svg" version="1.1" viewBox="0.00 0.00 400.00 400.00">
<g stroke-width="2.00" fill="none" stroke-linecap="butt">
<path stroke="#176c85" vector-effect="non-scaling-stroke" d="
  M 177.79 340.89
  L 149.07 341.50"
/>
<path stroke="#176c85" vector-effect="non-scaling-stroke" d="
  M 53.48 341.23
  L 92.50 341.24"
/>
<path stroke="#176c85" vector-effect="non-scaling-stroke" d="
  M 144.35 341.55
  L 104.87 341.25"
/>
</g>
<path fill="#191919" d="
  M 287.36 97.23
  Q 274.50 92.04 265.10 81.90
  Q 264.80 81.58 264.57 81.95
  Q 257.45 93.07 257.60 104.99
  Q 257.64 108.12 259.09 111.81
  C 262.11 119.55 269.34 122.60 277.34 119.45
  Q 278.34 119.06 278.75 119.89
  A 0.86 0.86 0.0 0 1 278.42 121.00
  Q 272.74 124.48 266.52 122.39
  C 254.69 118.41 253.74 102.57 257.42 92.73
  Q 259.85 86.23 263.18 80.11
  Q 263.43 79.66 263.18 79.21
  Q 257.20 68.68 264.11 58.51
  C 268.29 52.36 275.76 54.32 280.58 58.26
  A 0.39 0.39 0.0 0 1 280.52 58.91
  L 276.44 61.14
  A 0.90 0.89 -19.4 0 0 275.98 62.08
  C 276.54 65.55 279.31 65.95 282.43 65.52
  C 287.98 64.74 293.21 62.83 297.83 66.23
  C 303.09 70.09 305.91 78.09 304.72 84.78
  Q 304.61 85.38 304.00 85.36
  Q 299.73 85.17 295.90 87.04
  A 0.49 0.49 0.0 0 0 296.16 87.97
  C 300.82 87.53 304.74 86.68 308.12 90.74
  Q 312.03 95.44 308.44 101.45
  Q 301.82 112.51 288.69 111.23
  Q 288.15 111.18 287.87 111.65
  Q 286.76 113.48 286.61 116.25
  Q 285.84 130.22 290.28 143.84
  A 0.88 0.88 0.0 0 1 289.82 144.91
  Q 289.04 145.29 288.41 144.66
  Q 288.06 144.32 287.81 143.55
  Q 283.03 128.96 285.07 113.71
  Q 285.52 110.31 285.52 110.31
  C 286.71 106.01 291.47 110.37 292.42 105.26
  Q 293.38 100.05 288.31 99.31
  A 0.72 0.72 0.0 0 1 287.71 98.48
  L 287.79 97.98
  Q 287.87 97.44 287.36 97.23
  Z"
/>
<rect fill="#14bef0" x="-0.63" y="-5.98" transform="translate(171.07,73.57) rotate(8.1)" width="1.26" height="11.96" rx="0.61"/>
<rect fill="#14bef0" x="-0.70" y="-5.55" transform="translate(161.97,79.84) rotate(-42.4)" width="1.40" height="11.10" rx="0.69"/>
<rect fill="#14bef0" x="-0.69" y="-4.79" transform="translate(178.09,79.13) rotate(43.8)" width="1.38" height="9.58" rx="0.66"/>
<path fill="#14bef0" d="
  M 127.74 86.21
  C 132.62 91.05 144.47 102.32 151.92 100.06
  C 160.42 97.47 165.76 89.38 170.12 82.40
  A 0.74 0.74 0.0 0 1 171.45 82.57
  Q 174.30 91.57 179.39 98.54
  C 182.49 102.78 189.48 101.42 193.93 99.05
  Q 199.36 96.14 205.70 92.63
  A 1.08 1.08 0.0 0 1 207.15 94.12
  L 200.75 105.08
  A 0.74 0.74 0.0 0 1 199.98 105.44
  Q 194.49 104.55 191.90 108.95
  Q 189.85 112.44 193.02 115.04
  Q 193.45 115.39 193.08 115.80
  L 183.47 126.57
  Q 183.13 126.95 182.61 126.95
  L 130.23 127.14
  A 1.83 1.81 62.8 0 1 129.16 126.79
  L 119.15 119.45
  Q 118.64 119.07 119.01 118.56
  C 123.54 112.27 112.74 106.41 110.24 111.15
  Q 109.91 111.77 109.43 111.26
  L 102.33 103.73
  A 0.87 0.87 0.0 0 1 103.32 102.33
  Q 108.72 104.73 114.83 106.14
  Q 123.80 108.21 125.28 99.08
  Q 126.28 92.89 126.11 86.92
  A 0.96 0.96 0.0 0 1 127.74 86.21
  Z
  M 168.5531 105.8904
  A 5.50 4.44 97.7 0 0 173.6900 101.0349
  A 5.50 4.44 97.7 0 0 170.0269 94.9896
  A 5.50 4.44 97.7 0 0 164.8900 99.8451
  A 5.50 4.44 97.7 0 0 168.5531 105.8904
  Z
  M 136.3205 106.9887
  A 6.25 3.93 57.8 0 0 136.3155 99.6058
  A 6.25 3.93 57.8 0 0 129.6595 96.4113
  A 6.25 3.93 57.8 0 0 129.6645 103.7942
  A 6.25 3.93 57.8 0 0 136.3205 106.9887
  Z"
/>
<path fill="#191919" d="
  M 262.78 101.78
  C 263.25 102.94 263.98 103.04 264.77 103.76
  A 1.06 1.06 0.0 0 1 263.52 105.47
  Q 258.87 102.73 261.18 97.15
  Q 263.48 91.57 266.02 86.29
  A 0.53 0.53 0.0 0 1 267.03 86.47
  C 267.07 86.91 267.02 87.72 266.80 88.15
  C 264.89 91.84 261.42 98.35 262.78 101.78
  Z"
/>
<rect fill="#14bef0" x="-0.72" y="-6.01" transform="translate(104.62,92.40) rotate(-0.4)" width="1.44" height="12.02" rx="0.70"/>
<path fill="#14bef0" d="
  M 144.27 95.85
  L 149.03 88.03
  A 0.94 0.94 0.0 0 1 150.55 87.91
  L 156.39 94.82
  A 0.94 0.94 0.0 0 1 155.99 96.30
  L 150.44 98.35
  A 0.94 0.94 0.0 0 1 149.91 98.39
  L 144.87 97.26
  A 0.94 0.94 0.0 0 1 144.27 95.85
  Z"
/>
<path fill="#14bef0" d="
  M 189.27 99.07
  C 186.68 100.76 182.53 100.02 181.33 96.88
  Q 181.14 96.39 181.53 96.04
  L 186.66 91.36
  A 0.84 0.84 0.0 0 1 188.04 91.77
  L 189.63 98.14
  Q 189.78 98.74 189.27 99.07
  Z"
/>
<path fill="#191919" d="
  M 276.03 94.70
  L 270.52 92.54
  A 0.33 0.33 0.0 0 1 270.51 91.94
  Q 274.27 90.28 276.87 93.57
  A 0.73 0.73 0.0 0 1 276.03 94.70
  Z"
/>
<path fill="#14bef0" d="
  M 96.35 98.71
  C 93.58 98.26 90.13 94.92 88.70 92.58
  A 0.38 0.38 0.0 0 1 89.05 92.00
  Q 90.07 92.06 90.48 93.03
  A 1.96 1.88 7.6 0 0 91.16 93.88
  L 96.74 97.74
  A 0.54 0.53 67.0 0 1 96.35 98.71
  Z"
/>
<path fill="#14bef0" d="
  M 122.31 100.19
  Q 119.75 105.52 114.08 103.25
  Q 113.68 103.09 113.73 102.67
  L 114.44 95.58
  A 0.58 0.58 0.0 0 1 115.31 95.14
  L 122.01 99.17
  Q 122.63 99.54 122.31 100.19
  Z"
/>
<path fill="#191919" d="
  M 276.07 97.65
  A 0.24 0.24 0.0 0 1 275.85 97.90
  L 275.66 97.92
  A 6.19 0.81 -4.2 0 1 269.43 97.56
  L 269.41 97.30
  A 6.19 0.81 -4.2 0 1 275.52 96.04
  L 275.71 96.03
  A 0.24 0.24 0.0 0 1 275.97 96.25
  L 276.07 97.65
  Z"
/>
<ellipse fill="#14bef0" cx="0.00" cy="0.00" transform="translate(93.62,110.47) rotate(-10.8)" rx="6.68" ry="0.94"/>
<path fill="#191919" d="
  M 275.49 110.05
  Q 275.67 110.40 275.40 110.69
  Q 272.16 114.22 267.74 112.60
  A 0.57 0.57 0.0 0 1 267.99 111.49
  Q 271.63 111.85 273.93 109.11
  A 0.69 0.69 0.0 0 1 275.08 109.25
  L 275.49 110.05
  Z"
/>
<ellipse fill="#191919" cx="0.00" cy="0.00" transform="translate(266.93,132.93) rotate(102.0)" rx="8.83" ry="1.06"/>
<path fill="#14bef0" d="
  M 178.26 133.24
  C 178.27 134.60 177.36 136.97 176.51 138.28
  Q 176.24 138.68 175.76 138.69
  Q 154.47 139.11 133.24 137.57
  A 0.98 0.97 82.5 0 1 132.40 136.92
  L 131.01 132.96
  Q 130.76 132.26 131.50 132.20
  Q 154.22 130.49 176.94 131.85
  Q 178.25 131.93 178.26 133.24
  Z"
/>
<path fill="#191919" d="
  M 163.00 154.28
  C 153.10 154.70 143.42 148.71 137.39 141.85
  Q 137.02 141.42 137.52 141.15
  Q 137.67 141.07 137.86 141.07
  Q 138.05 141.07 138.23 141.22
  C 145.73 147.71 153.56 152.62 163.86 152.45
  A 0.70 0.69 7.1 0 1 164.55 153.33
  Q 164.31 154.23 163.00 154.28
  Z"
/>
<path fill="#191919" d="
  M 309.14 152.19
  C 315.07 154.25 322.64 156.06 327.11 157.49
  C 342.49 162.40 359.39 171.25 364.71 187.59
  A 0.46 0.45 76.1 0 1 364.36 188.18
  L 364.07 188.24
  Q 363.68 188.31 363.53 187.95
  C 353.71 164.41 327.70 159.93 306.46 153.17
  A 0.65 0.65 0.0 0 1 306.20 152.08
  L 308.49 149.83
  A 0.45 0.44 35.9 0 0 308.37 149.11
  L 297.51 143.95
  A 0.76 0.76 0.0 0 0 296.73 144.04
  L 279.70 157.20
  A 0.67 0.66 1.0 0 1 278.78 156.25
  Q 280.24 154.52 282.40 152.91
  Q 289.49 147.64 296.16 142.16
  Q 296.72 141.69 297.38 142.02
  L 310.58 148.54
  A 0.87 0.87 0.0 0 1 310.75 149.98
  L 309.01 151.45
  Q 308.42 151.94 309.14 152.19
  Z"
/>
<path fill="#191919" d="
  M 149.63 170.99
  Q 142.59 176.25 136.04 176.19
  C 131.65 176.15 125.72 174.34 123.31 170.47
  A 0.63 0.63 0.0 0 1 124.28 169.68
  C 132.64 177.85 141.82 174.07 150.37 168.51
  A 0.99 0.99 0.0 0 1 151.88 169.15
  Q 153.26 176.46 156.11 183.32
  Q 156.39 183.97 156.91 183.49
  Q 165.65 175.34 176.18 169.64
  Q 176.70 169.36 176.30 168.93
  L 172.78 165.15
  A 1.12 1.10 -46.9 0 1 172.74 163.68
  C 177.56 157.86 177.59 149.93 170.87 145.63
  A 0.63 0.63 0.0 0 1 171.37 144.50
  Q 174.13 145.24 175.75 147.71
  Q 181.64 156.64 175.28 164.96
  Q 174.96 165.38 175.34 165.74
  Q 191.23 180.67 204.53 197.93
  A 0.43 0.43 0.0 0 1 204.10 198.61
  Q 203.46 198.48 202.76 197.73
  Q 191.13 185.44 178.44 171.11
  Q 177.70 170.28 176.81 170.93
  L 157.62 184.89
  Q 157.12 185.25 157.38 185.80
  Q 167.24 206.25 183.18 222.33
  Q 195.94 235.21 213.56 229.06
  Q 226.94 224.39 236.00 213.66
  A 0.56 0.56 0.0 0 1 236.95 213.79
  Q 237.08 214.08 236.75 214.46
  C 223.07 229.94 199.49 240.89 182.04 223.69
  Q 159.57 201.54 150.42 171.25
  A 0.51 0.51 0.0 0 0 149.63 170.99
  Z"
/>
<path fill="#191919" d="
  M 243.25 151.43
  L 244.81 154.43
  Q 245.21 155.20 244.39 155.49
  C 230.18 160.58 211.32 172.12 205.54 186.40
  Q 205.39 186.77 204.99 186.84
  Q 204.81 186.87 204.62 186.83
  Q 204.16 186.73 204.33 186.28
  Q 205.92 182.14 208.62 178.63
  Q 221.72 161.63 241.78 154.12
  Q 242.25 153.94 242.02 153.50
  L 240.47 150.57
  A 0.89 0.88 -19.3 0 1 241.09 149.29
  C 247.79 147.96 254.19 145.74 260.98 144.73
  A 0.97 0.96 -25.9 0 1 261.81 145.01
  L 272.15 155.62
  A 0.81 0.81 0.0 0 1 271.55 157.00
  Q 270.71 156.98 269.89 156.10
  Q 265.42 151.26 260.90 146.47
  A 0.96 0.95 60.4 0 0 259.94 146.20
  L 243.44 150.98
  Q 243.07 151.08 243.25 151.43
  Z"
/>
<path fill="#191919" d="
  M 145.12 154.70
  C 139.05 156.10 131.77 154.36 128.59 148.49
  Q 128.46 148.25 128.48 148.05
  Q 128.51 147.75 128.74 147.59
  Q 129.02 147.39 129.24 147.67
  Q 134.88 154.74 144.27 153.19
  Q 145.26 153.02 145.56 153.91
  A 0.61 0.61 0.0 0 1 145.12 154.70
  Z"
/>
<path fill="#191919" d="
  M 250.17 156.60
  Q 255.34 163.39 261.77 168.66
  A 1.18 1.17 23.8 0 1 262.19 169.73
  Q 262.07 170.68 261.43 170.67
  Q 261.07 170.66 260.59 170.24
  Q 253.51 164.17 248.60 156.48
  A 0.49 0.49 0.0 0 1 249.27 155.79
  Q 249.79 156.10 250.17 156.60
  Z"
/>
<path fill="#191919" d="
  M 126.74 156.98
  C 130.45 161.91 137.75 161.94 143.26 161.68
  Q 144.15 161.64 144.52 162.12
  A 0.54 0.53 61.8 0 1 144.27 162.95
  C 137.29 165.29 129.29 164.00 125.36 157.25
  A 0.44 0.44 0.0 0 1 125.58 156.62
  Q 125.92 156.49 126.25 156.58
  Q 126.49 156.65 126.74 156.98
  Z"
/>
<path fill="#191919" d="
  M 291.44 166.46
  Q 298.14 163.60 303.08 158.07
  A 0.56 0.56 0.0 0 1 304.05 158.52
  C 303.29 163.99 292.00 168.59 287.45 169.64
  A 0.48 0.48 0.0 0 1 287.08 168.77
  Q 289.15 167.44 291.44 166.46
  Z"
/>
<path fill="#191919" d="
  M 279.53 160.21
  C 288.32 163.17 277.68 172.42 274.15 174.15
  Q 273.27 174.59 272.64 173.83
  Q 268.64 169.04 266.41 163.23
  Q 265.57 161.03 267.76 160.15
  Q 273.05 158.03 279.53 160.21
  Z"
/>
<path fill="#191919" d="
  M 320.47 191.96
  L 313.86 186.57
  A 0.57 0.55 -55.2 0 1 313.74 185.85
  Q 314.09 185.27 314.70 185.58
  Q 320.10 188.31 323.90 193.06
  Q 324.24 193.47 324.75 193.59
  Q 348.57 198.73 372.90 191.13
  Q 374.75 190.55 376.34 192.42
  Q 382.10 199.24 393.09 206.37
  Q 395.60 207.99 393.84 211.14
  Q 390.01 218.01 383.36 225.37
  Q 378.50 230.74 371.50 229.70
  Q 334.48 224.19 301.97 205.75
  Q 287.27 197.41 275.43 185.33
  C 271.56 181.37 272.15 173.49 279.99 177.50
  Q 295.68 185.52 312.52 190.71
  Q 316.31 191.88 320.23 192.48
  Q 321.31 192.65 320.47 191.96
  Z
  M 329.58 200.40
  Q 340.91 201.69 352.22 201.95
  C 359.14 202.10 365.60 201.41 372.25 200.22
  A 0.63 0.63 0.0 0 0 372.50 199.09
  Q 372.28 198.93 371.84 198.73
  Q 371.51 198.59 371.12 198.62
  Q 350.43 200.37 329.70 199.52
  Q 329.20 199.50 329.20 199.97
  A 0.44 0.43 3.8 0 0 329.58 200.40
  Z"
/>
<path fill="#191919" d="
  M 261.39 241.86
  Q 255.65 235.99 257.54 228.12
  Q 257.75 227.26 258.69 227.62
  A 0.56 0.56 0.0 0 1 259.03 228.27
  C 257.03 237.16 264.97 246.06 274.27 243.25
  A 0.98 0.96 85.8 0 0 274.94 242.46
  Q 275.75 236.51 275.42 228.26
  Q 274.69 209.62 273.90 190.80
  A 0.50 0.50 0.0 0 1 274.88 190.64
  Q 275.72 193.47 275.90 196.75
  Q 277.15 218.94 276.78 241.16
  Q 276.78 241.68 277.24 241.91
  C 283.65 245.09 291.66 243.02 293.13 235.25
  Q 293.99 230.71 292.91 226.14
  A 0.57 0.57 0.0 0 1 293.99 225.78
  Q 298.02 234.88 291.86 242.25
  Q 291.59 242.56 292.00 242.64
  C 308.01 245.51 309.01 234.37 308.88 222.34
  A 0.48 0.47 -1.9 0 1 309.34 221.86
  L 309.72 221.85
  A 0.43 0.42 84.0 0 1 310.16 222.21
  C 311.22 228.86 311.24 238.16 305.24 242.83
  Q 304.82 243.16 305.04 243.65
  C 310.02 254.50 312.59 268.09 315.49 281.00
  Q 322.82 313.72 327.96 340.94
  Q 328.07 341.50 327.50 341.50
  L 289.29 341.50
  Q 288.83 341.50 288.79 341.04
  L 282.55 278.69
  Q 282.49 278.12 283.05 278.00
  L 286.73 277.22
  A 0.27 0.27 0.0 0 0 286.93 276.90
  L 286.84 276.56
  Q 286.73 276.16 286.32 276.19
  L 268.77 277.40
  A 0.65 0.65 0.0 0 0 268.81 278.70
  L 273.85 278.78
  Q 274.41 278.79 274.43 279.35
  L 276.37 340.19
  Q 276.38 340.77 275.81 340.76
  L 237.99 340.24
  Q 237.40 340.24 237.44 339.65
  Q 238.90 316.38 242.19 275.75
  Q 243.75 256.44 246.05 241.86
  Q 246.12 241.37 245.71 241.12
  C 235.44 234.78 239.09 213.67 240.67 203.68
  A 0.51 0.51 0.0 0 1 241.66 203.60
  Q 241.91 204.38 241.77 205.50
  C 240.71 214.29 236.64 240.42 250.83 241.17
  Q 256.03 241.44 261.17 242.28
  Q 261.92 242.41 261.39 241.86
  Z"
/>
<path fill="#191919" d="
  M 330.51 242.76
  Q 325.13 236.69 326.23 228.55
  Q 326.29 228.07 325.84 228.23
  Q 311.57 233.32 312.27 248.25
  C 312.77 258.76 320.58 271.98 333.18 268.26
  A 0.96 0.95 -2.6 0 1 334.39 269.36
  Q 334.25 270.03 333.20 270.41
  C 319.48 275.38 311.15 258.99 310.28 248.24
  C 309.31 236.32 318.40 225.85 330.59 225.84
  A 0.50 0.50 0.0 0 1 330.72 226.83
  L 328.42 227.43
  Q 327.99 227.54 327.94 227.97
  Q 326.88 236.56 332.86 242.55
  Q 333.20 242.90 333.69 242.98
  C 347.11 245.22 358.30 243.23 365.95 230.98
  A 0.50 0.50 0.0 0 1 366.86 231.37
  C 364.84 238.86 356.35 243.94 349.29 245.63
  C 341.30 247.53 329.27 242.22 323.70 249.19
  A 0.70 0.70 0.0 0 1 322.51 248.50
  Q 324.54 243.37 330.21 243.43
  A 0.40 0.40 0.0 0 0 330.51 242.76
  Z"
/>
<path fill="#191919" d="
  M 132.74 234.71
  L 141.90 238.79
  A 0.82 0.82 0.0 0 1 142.23 240.02
  L 142.08 240.24
  Q 141.78 240.65 141.33 240.42
  Q 135.13 237.34 128.41 235.58
  Q 127.29 235.28 126.78 234.60
  A 0.72 0.72 0.0 0 1 127.13 233.49
  C 136.50 230.34 145.63 230.04 157.02 229.77
  Q 159.99 229.70 162.86 230.68
  Q 173.25 234.22 183.62 237.70
  Q 184.02 237.84 183.92 238.29
  A 0.62 0.62 0.0 0 1 183.18 238.75
  Q 174.46 236.69 165.76 233.55
  Q 160.14 231.52 154.19 231.95
  Q 143.46 232.74 132.82 234.15
  A 0.30 0.29 53.4 0 0 132.74 234.71
  Z"
/>
<path fill="#191919" d="
  M 124.88 236.57
  A 0.85 0.84 5.9 0 1 125.74 235.88
  C 127.14 235.91 127.72 236.63 127.65 238.02
  Q 126.30 263.19 127.15 288.39
  Q 127.17 289.02 126.54 289.00
  L 125.81 288.98
  Q 125.23 288.97 125.20 288.39
  Q 123.98 269.46 123.67 250.50
  Q 123.56 243.53 124.88 236.57
  Z"
/>
<path fill="#14bef0" d="
  M 177.79 340.89
  L 149.07 341.50
  L 146.68 245.96
  A 4.06 4.05 -2.1 0 1 150.54 241.81
  L 165.96 241.07
  Q 166.88 241.02 166.12 241.54
  L 154.14 249.81
  A 0.99 0.99 0.0 0 0 153.92 251.22
  Q 154.95 252.58 157.01 251.23
  Q 163.93 246.70 170.86 242.20
  C 174.17 240.06 181.50 240.55 185.46 240.34
  C 189.94 240.10 192.83 241.58 191.90 246.52
  Q 191.81 246.99 191.40 247.24
  L 156.78 268.05
  A 1.45 1.43 66.0 0 0 156.15 269.72
  Q 156.78 271.72 158.53 270.76
  Q 175.38 261.53 191.72 251.43
  Q 192.29 251.08 192.32 251.74
  L 193.08 268.20
  Q 193.10 268.71 192.67 268.98
  L 156.24 291.27
  A 0.97 0.97 0.0 0 0 155.94 292.63
  L 156.44 293.39
  Q 156.69 293.78 157.11 293.56
  L 192.60 274.48
  Q 193.30 274.10 193.34 274.90
  L 193.99 289.10
  Q 194.01 289.61 193.59 289.90
  L 156.54 315.33
  A 1.33 1.32 56.7 0 0 156.17 317.13
  Q 156.81 318.16 157.97 317.42
  Q 175.81 306.16 193.68 294.94
  Q 194.24 294.58 194.27 295.25
  L 195.10 313.51
  Q 195.12 313.96 194.73 314.20
  L 164.09 333.09
  A 1.63 1.62 -7.4 0 0 163.39 333.99
  Q 162.90 335.55 163.96 335.77
  Q 164.41 335.87 165.02 335.52
  Q 179.66 327.23 194.81 319.89
  Q 195.40 319.60 195.43 320.26
  L 196.39 340.00
  Q 196.41 340.47 195.94 340.48
  L 177.79 340.89
  Z"
/>
<path fill="#191919" d="
  M 326.79 251.36
  C 329.18 255.12 333.69 256.25 337.60 254.26
  A 0.80 0.80 0.0 0 1 338.47 255.59
  C 333.89 259.35 327.46 257.13 325.95 251.74
  A 0.47 0.47 0.0 0 1 326.79 251.36
  Z"
/>
<path fill="#191919" d="
  M 322.26 255.21
  A 0.35 0.35 0.0 0 1 322.49 254.75
  Q 322.62 254.71 322.76 254.67
  A 0.52 0.51 -22.9 0 1 323.37 254.91
  Q 326.97 261.62 334.76 260.25
  A 0.58 0.58 0.0 0 1 335.31 261.18
  Q 333.92 262.93 331.48 262.78
  Q 324.82 262.36 322.26 255.21
  Z"
/>
<path fill="#191919" d="
  M 91.87 291.35
  Q 96.69 293.13 101.12 295.72
  Q 101.43 295.90 101.50 296.15
  Q 101.56 296.40 101.48 296.67
  A 0.53 0.53 0.0 0 1 100.78 297.03
  L 86.33 291.45
  A 0.68 0.68 0.0 0 1 86.37 290.17
  Q 97.46 286.63 109.20 286.55
  Q 112.56 286.53 116.21 287.75
  Q 126.21 291.10 136.07 294.41
  A 0.42 0.42 0.0 0 1 136.29 295.03
  Q 135.94 295.57 135.51 295.45
  Q 126.31 292.96 117.27 289.94
  C 112.54 288.36 109.13 288.81 103.28 289.41
  Q 97.64 289.98 91.92 290.87
  Q 90.98 291.02 91.87 291.35
  Z"
/>
<path fill="#191919" d="
  M 83.53 295.49
  Q 83.70 293.33 84.86 292.65
  A 1.57 1.57 0.0 0 1 87.22 294.15
  L 85.99 308.22
  A 0.88 0.87 -48.2 0 1 84.26 308.32
  Q 83.01 302.14 83.53 295.49
  Z"
/>
<path fill="#14bef0" d="
  M 144.35 341.55
  L 104.87 341.25
  L 103.69 305.02
  A 4.10 4.10 0.0 0 1 107.64 300.78
  L 120.25 300.31
  Q 121.12 300.27 120.42 300.81
  C 116.51 303.79 112.17 306.02 108.68 309.41
  A 1.02 1.02 0.0 0 0 109.94 311.00
  Q 117.57 306.17 125.31 301.27
  C 128.51 299.24 133.09 299.64 136.74 299.52
  C 141.80 299.35 142.52 302.28 142.22 306.59
  Q 142.18 307.09 141.75 307.33
  Q 126.93 315.69 112.45 324.62
  Q 111.07 325.47 110.57 326.50
  A 1.49 1.49 0.0 0 0 112.64 328.44
  L 142.41 311.65
  A 0.14 0.14 0.0 0 1 142.62 311.77
  L 143.40 324.61
  Q 143.43 325.08 143.04 325.35
  L 127.94 335.87
  A 1.04 1.00 -13.5 0 0 127.51 336.54
  Q 127.29 337.81 128.12 338.12
  Q 128.61 338.31 129.32 337.94
  Q 136.32 334.37 143.23 330.62
  Q 143.70 330.37 143.73 330.90
  L 144.35 341.55
  Z"
/>
<path fill="#191919" d="
  M 44.54 308.66
  L 53.79 312.80
  A 0.73 0.72 -64.4 0 1 54.14 313.80
  L 53.95 314.16
  A 0.57 0.57 0.0 0 1 53.19 314.41
  C 50.39 313.05 47.95 311.93 44.73 311.03
  Q 41.83 310.22 39.08 309.06
  A 0.88 0.88 0.0 0 1 39.15 307.41
  Q 50.05 303.90 61.70 303.79
  Q 65.08 303.76 68.76 304.97
  Q 78.64 308.23 88.47 311.59
  Q 88.99 311.77 88.92 312.31
  L 88.89 312.63
  A 0.30 0.29 11.2 0 1 88.52 312.87
  Q 78.28 309.89 68.07 306.80
  Q 65.17 305.92 62.29 306.12
  Q 53.38 306.75 44.60 308.17
  A 0.26 0.26 0.0 0 0 44.54 308.66
  Z"
/>
<path fill="#191919" d="
  M 53.48 341.23
  L 92.50 341.24
  L 104.87 341.25
  L 144.35 341.55
  L 149.07 341.50
  L 177.79 340.89
  L 212.04 340.46
  Q 212.48 340.45 212.81 340.75
  Q 213.94 341.78 213.20 343.05
  Q 212.93 343.50 212.41 343.55
  C 180.08 346.59 147.19 345.56 114.75 345.34
  C 78.70 345.09 42.65 344.49 6.59 344.28
  Q 5.91 344.27 5.76 343.61
  L 5.49 342.49
  A 0.85 0.85 0.0 0 1 6.31 341.45
  L 36.28 341.18
  Q 36.75 341.18 36.71 340.71
  C 35.99 330.82 34.76 320.19 36.83 310.48
  A 0.83 0.83 0.0 0 1 37.57 309.83
  C 39.14 309.69 39.73 310.45 39.67 311.98
  Q 39.08 326.33 38.71 340.70
  Q 38.69 341.23 39.22 341.23
  L 53.48 341.23
  Z"
/>
<path fill="#14bef0" d="
  M 92.50 341.24
  L 53.48 341.23
  L 52.79 320.95
  A 3.29 3.29 0.0 0 1 55.98 317.55
  L 72.74 317.04
  Q 73.54 317.02 72.90 317.49
  Q 66.99 321.89 60.93 325.88
  Q 59.07 327.10 60.23 328.31
  A 0.99 0.97 51.8 0 0 61.46 328.47
  Q 70.18 323.05 77.93 318.04
  C 80.87 316.15 89.61 314.44 90.86 319.38
  Q 91.67 322.54 91.44 325.87
  Q 91.40 326.39 90.95 326.65
  L 75.08 335.78
  A 1.16 1.15 -31.1 0 0 74.68 337.39
  L 75.23 338.28
  Q 75.57 338.83 76.16 338.57
  Q 84.10 335.09 91.30 330.27
  A 0.36 0.35 71.5 0 1 91.85 330.55
  L 92.50 341.24
  Z"
/>
</svg>
